<svg width="111" height="37" viewBox="0 0 111 37" fill="none" xmlns="http://www.w3.org/2000/svg">
<path d="M8.78062 0C8.44319 0 8.11033 0 7.77473 0.00185C7.49216 0.0037 7.21325 0.00925 6.92886 0.013875C6.31161 0.021275 5.69618 0.07585 5.08716 0.178525C4.16995 0.330682 3.30107 0.699221 2.55088 1.25429C1.8007 1.80936 1.1903 2.53536 0.769131 3.37348C0.489409 3.93219 0.295455 4.53075 0.193943 5.14855C0.0916362 5.76555 0.0366055 6.38962 0.0293417 7.0152C0.0201972 7.30103 0.0201972 7.58778 0.015625 7.8736V29.1301C0.0201972 29.4187 0.0211117 29.699 0.0293417 29.9894C0.0366573 30.6147 0.0915243 31.2382 0.193943 31.8552C0.294532 32.474 0.48931 33.0725 0.769131 33.6312C1.0474 34.1886 1.41303 34.6968 1.85184 35.1361C2.28626 35.5808 2.78862 35.9519 3.33965 36.235C3.88964 36.5188 4.47876 36.7171 5.08716 36.8233C5.69618 36.9251 6.31252 36.9806 6.92886 36.988C7.21325 36.9944 7.49216 36.9981 7.77381 36.9981C8.11033 37 8.44319 37 8.77971 37H101.255C101.586 37 101.922 37 102.252 36.9981C102.532 36.9981 102.819 36.9944 103.1 36.9889C103.716 36.9808 104.33 36.9255 104.938 36.8233C105.548 36.7164 106.14 36.5181 106.693 36.235C107.243 35.9515 107.744 35.5805 108.178 35.1361C108.616 34.6952 108.983 34.1873 109.265 33.6312C109.542 33.0718 109.734 32.4729 109.834 31.8552C109.936 31.2384 109.993 30.6148 110.005 29.9894C110.008 29.699 110.008 29.4187 110.008 29.1292C110.016 28.7906 110.016 28.4539 110.016 28.1098V8.89202C110.016 8.54978 110.016 8.21123 110.008 7.8736C110.008 7.58685 110.008 7.3001 110.005 7.0152C109.993 6.38956 109.936 5.76562 109.834 5.14855C109.734 4.53116 109.542 3.93265 109.265 3.37348C108.698 2.25275 107.799 1.33984 106.693 0.763125C106.14 0.480826 105.548 0.283779 104.938 0.178525C104.33 0.0758365 103.716 0.0207893 103.1 0.013875C102.82 0.00925 102.533 0.0037 102.252 0.00185C101.922 0 101.586 0 101.255 0H8.78062Z" fill="#1D1D1F"/>
<path d="M7.95023 35.9972C7.67149 35.9972 7.39915 35.9936 7.12225 35.9881C6.54879 35.9806 5.97666 35.9306 5.41053 35.8387C4.88287 35.7479 4.37159 35.579 3.89347 35.3375C3.42007 35.0981 2.98808 34.7841 2.61402 34.4073C2.23484 34.0353 1.91902 33.6035 1.67911 33.129C1.43693 32.6523 1.26926 32.1411 1.18195 31.6133C1.08765 31.0459 1.03663 30.4721 1.02933 29.8969C1.02385 29.7045 1.01562 29.0621 1.01562 29.0621V7.92504C1.01562 7.92504 1.02476 7.29274 1.02933 7.10672C1.03643 6.53248 1.08715 5.95961 1.18104 5.3931C1.26877 4.86435 1.43693 4.35118 1.67911 3.87283C2.16725 2.92022 2.94152 2.14545 3.89255 1.65796C4.36942 1.41727 4.87955 1.24954 5.40596 1.16037C5.97414 1.06748 6.54844 1.01725 7.12407 1.01008L7.95023 1H102.076L102.912 1.01191C103.482 1.01833 104.051 1.06781 104.614 1.16037C105.146 1.25066 105.662 1.41958 106.144 1.66162C107.094 2.15014 107.867 2.92428 108.356 3.87558C108.595 4.3521 108.761 4.85977 108.847 5.38485C108.942 5.95575 108.995 6.53307 109.006 7.1113C109.008 7.37063 109.008 7.64921 109.008 7.92596C109.016 8.26868 109.016 8.59491 109.016 8.9248V28.0743C109.016 28.4069 109.016 28.7313 109.008 29.0585C109.008 29.3563 109.008 29.6284 109.005 29.9089C108.994 30.477 108.942 31.0437 108.848 31.6042C108.763 32.1361 108.596 32.6517 108.354 33.1327C108.112 33.6019 107.798 34.0299 107.424 34.4009C107.049 34.7794 106.617 35.0955 106.141 35.3356C105.66 35.5793 105.146 35.7492 104.614 35.8396C104.048 35.9313 103.476 35.9817 102.903 35.989C102.634 35.9945 102.353 35.9982 102.08 35.9982L101.088 36L7.95023 35.9972Z" fill="#1D1D1F"/>
<path d="M22.1836 18.1989C22.1854 20.0141 23.2081 21.6535 24.7816 22.3615C24.48 23.4036 24.0239 24.3906 23.4297 25.2868C22.6342 26.5527 21.8001 27.7899 20.4749 27.8128C19.1883 27.8443 18.7551 27.0074 17.28 27.0074C15.7901 27.0074 15.3285 27.7899 14.0943 27.8443C12.8334 27.894 11.8687 26.4934 11.0447 25.239C9.39576 22.6786 8.11192 18.0222 9.83259 14.8541C10.6419 13.3103 12.152 12.33 13.8138 12.2727C15.0756 12.246 16.2481 13.1803 17.0243 13.1803C17.7858 13.1803 19.2342 12.0625 20.7287 12.2288C21.4336 12.2547 22.1227 12.4531 22.7398 12.8079C23.357 13.1627 23.8848 13.6637 24.2804 14.2704C23.6434 14.6918 23.1179 15.2719 22.7517 15.958C22.3855 16.6441 22.1902 17.4144 22.1836 18.1989ZM20.3921 10.6228C19.6453 11.6403 18.5142 12.225 17.3223 12.2116C17.2435 10.9478 17.6316 9.70036 18.4075 8.72351C19.1684 7.76197 20.2586 7.14449 21.4488 7.00098C21.5433 8.30331 21.1661 9.59535 20.3912 10.6237L20.3921 10.6228Z" fill="white"/>
<path d="M68.8361 23.2909C67.3251 23.2909 66.2188 22.5123 66.0919 21.3257H64.3335C64.4439 23.4887 66.1636 24.8577 68.7083 24.8577C71.4305 24.8577 73.1411 23.4562 73.1411 21.2187C73.1411 19.4704 72.1616 18.4845 69.8073 17.9036L68.5419 17.5807C67.0621 17.1995 66.4579 16.7017 66.4579 15.8562C66.4579 14.7958 67.4042 14.0668 68.7883 14.0668C70.1724 14.0668 71.1197 14.7872 71.2236 15.9804H72.9581C72.902 13.9168 71.2392 12.5 68.8132 12.5C66.3623 12.5 64.6361 13.9168 64.6361 15.9804C64.6361 17.6475 65.6146 18.6736 67.7225 19.2048L69.2104 19.5774C70.6975 19.9586 71.3266 20.5146 71.3266 21.4423C71.3266 22.5123 70.2846 23.2909 68.8361 23.2909Z" fill="white"/>
<path d="M76.8491 15.9393V13.8757H75.1229V15.9393H73.9053V17.3571H75.1229V22.3537C75.1229 24.0447 75.7832 24.7077 77.4782 24.7077C77.7982 24.7144 78.1173 24.6867 78.4328 24.6256V23.2164C78.2442 23.2403 78.0557 23.2546 77.8672 23.2575C77.1673 23.2575 76.8491 22.9097 76.8491 22.1636V17.3562H78.4401V15.9393H76.8491Z" fill="white"/>
<path d="M90.357 15.9393H88.7191L88.7182 24.6581H90.437V19.4866C90.4087 19.2282 90.4345 18.9664 90.5126 18.7192C90.5906 18.472 90.7192 18.2453 90.8895 18.0545C91.0592 17.8642 91.2667 17.7143 91.4975 17.6151C91.7283 17.516 91.9771 17.47 92.2267 17.4804C92.4882 17.4726 92.7492 17.5094 92.9992 17.5893V15.9145C92.8061 15.8696 92.6084 15.8476 92.4106 15.8476C91.9519 15.8299 91.5013 15.9769 91.1347 16.2639C90.768 16.5508 90.5077 16.9601 90.3975 17.423H90.357V15.9393Z" fill="white"/>
<path fill-rule="evenodd" clip-rule="evenodd" d="M60.0038 20.2997C60.0038 23.0081 58.6114 24.7498 56.51 24.7498C55.9774 24.7783 55.4479 24.6503 54.9822 24.3805C54.5165 24.1106 54.1334 23.7098 53.877 23.2241H53.8375V27.5423H52.1196V15.9393H53.7823V17.3896H53.8136C54.0818 16.906 54.4714 16.5072 54.9408 16.2356C55.4102 15.9641 55.9417 15.83 56.4787 15.8476C58.6031 15.8476 60.0038 17.5969 60.0038 20.2997ZM56.0253 17.3734C57.3616 17.3734 58.238 18.5341 58.238 20.2997C58.238 22.0805 57.3616 23.2327 56.0253 23.2327C54.713 23.2327 53.8301 22.0556 53.8301 20.2997C53.8301 18.558 54.713 17.3734 56.0253 17.3734Z" fill="white"/>
<path fill-rule="evenodd" clip-rule="evenodd" d="M50.7906 20.2997C50.7906 23.0081 49.3992 24.7498 47.2978 24.7498C46.7652 24.7783 46.2357 24.6503 45.77 24.3805C45.3043 24.1106 44.9212 23.7098 44.6648 23.2241H44.6253V27.5423H42.9074V15.9393H44.5701V17.3896H44.6014C44.8696 16.906 45.2592 16.5072 45.7286 16.2356C46.198 15.9641 46.7295 15.83 47.2665 15.8476C49.3909 15.8476 50.7906 17.5969 50.7906 20.2997ZM46.8131 17.3734C48.1494 17.3734 49.0249 18.5341 49.0249 20.2997C49.0249 22.0805 48.1494 23.2327 46.8131 23.2327C45.5008 23.2327 44.6179 22.0556 44.6179 20.2997C44.6179 18.558 45.5008 17.3734 46.8131 17.3734Z" fill="white"/>
<path fill-rule="evenodd" clip-rule="evenodd" d="M38.905 21.426H34.5293L33.4781 24.6581H31.625L35.769 12.6997H37.6947L41.8396 24.6581H39.9543L38.905 21.426ZM38.4507 19.9347H34.9817L34.9827 19.9338L36.6932 14.6888H36.7401L38.4507 19.9347Z" fill="white"/>
<path fill-rule="evenodd" clip-rule="evenodd" d="M79.3625 20.2997C79.3625 17.5558 80.9131 15.8323 83.3318 15.8323C85.7587 15.8323 87.3028 17.5558 87.3028 20.2997C87.3028 23.0502 85.767 24.766 83.3318 24.766C80.8974 24.766 79.3625 23.0502 79.3625 20.2997ZM83.3318 17.3065C84.7241 17.3065 85.5518 18.4176 85.5518 20.2997C85.5518 22.1884 84.7241 23.29 83.3318 23.29C81.9403 23.29 81.1126 22.1884 81.1126 20.2997C81.1126 18.4262 81.9394 17.3065 83.3318 17.3065Z" fill="white"/>
<path fill-rule="evenodd" clip-rule="evenodd" d="M100.92 22.0977C100.689 23.6798 99.2096 24.766 97.3161 24.766C94.8817 24.766 93.3707 23.0674 93.3707 20.3407C93.3707 17.6055 94.8891 15.8314 97.2443 15.8314C99.56 15.8314 101.016 17.489 101.016 20.1325V20.7458H95.1043V20.8538C95.0769 21.1746 95.1155 21.4979 95.2174 21.8021C95.3194 22.1063 95.4824 22.3845 95.6956 22.6183C95.9082 22.8516 96.1663 23.0351 96.4525 23.1567C96.7387 23.2783 97.0466 23.3351 97.3556 23.3234C97.762 23.3628 98.1697 23.2647 98.518 23.0439C98.8664 22.823 99.1367 22.4911 99.2887 22.0977H100.92ZM99.297 19.4952H95.1126C95.1118 19.2038 95.1665 18.9151 95.2735 18.6457C95.3805 18.3763 95.5377 18.1316 95.7361 17.9256C95.934 17.7199 96.1692 17.5571 96.4281 17.4465C96.687 17.336 96.9644 17.28 97.2443 17.2816C97.5219 17.2756 97.7977 17.3294 98.0542 17.4396C98.3108 17.5497 98.5426 17.7139 98.7351 17.9217C98.9279 18.1298 99.0773 18.3769 99.174 18.6476C99.2706 18.9184 99.3125 19.2069 99.297 19.4952Z" fill="white"/>
</svg>
