<svg width="25" height="24" viewBox="0 0 25 24" fill="none" xmlns="http://www.w3.org/2000/svg">
<path fill-rule="evenodd" clip-rule="evenodd" d="M5.71563 1.4C5.90448 1.14819 6.20087 1 6.51562 1H18.5156C18.8304 1 19.1268 1.14819 19.3156 1.4L22.3156 5.4C22.4454 5.5731 22.5156 5.78363 22.5156 6V20C22.5156 20.7957 22.1996 21.5587 21.6369 22.1213C21.0743 22.6839 20.3113 23 19.5156 23H5.51562C4.71997 23 3.95691 22.6839 3.3943 22.1213C2.8317 21.5587 2.51562 20.7957 2.51562 20V6C2.51562 5.78363 2.5858 5.5731 2.71562 5.4L5.71563 1.4ZM7.01562 3L4.51562 6.33333V20C4.51562 20.2652 4.62098 20.5196 4.80852 20.7071C4.99605 20.8946 5.25041 21 5.51562 21H19.5156C19.7808 21 20.0352 20.8946 20.2227 20.7071C20.4103 20.5196 20.5156 20.2652 20.5156 20V6.33333L18.0156 3H7.01562Z" fill="#686870"/>
<path fill-rule="evenodd" clip-rule="evenodd" d="M2.51562 6C2.51562 5.44772 2.96334 5 3.51562 5H21.5156C22.0679 5 22.5156 5.44772 22.5156 6C22.5156 6.55228 22.0679 7 21.5156 7H3.51562C2.96334 7 2.51562 6.55228 2.51562 6Z" fill="#686870"/>
<path fill-rule="evenodd" clip-rule="evenodd" d="M8.51562 9C9.06791 9 9.51562 9.44772 9.51562 10C9.51562 10.7956 9.8317 11.5587 10.3943 12.1213C10.9569 12.6839 11.72 13 12.5156 13C13.3113 13 14.0743 12.6839 14.6369 12.1213C15.1996 11.5587 15.5156 10.7956 15.5156 10C15.5156 9.44772 15.9633 9 16.5156 9C17.0679 9 17.5156 9.44772 17.5156 10C17.5156 11.3261 16.9888 12.5979 16.0512 13.5355C15.1135 14.4732 13.8417 15 12.5156 15C11.1895 15 9.91777 14.4732 8.98009 13.5355C8.04241 12.5979 7.51562 11.3261 7.51562 10C7.51562 9.44772 7.96334 9 8.51562 9Z" fill="#686870"/>
</svg>
