<svg width="27" height="26" viewBox="0 0 27 26" fill="none" xmlns="http://www.w3.org/2000/svg">
<rect x="0.015625" width="26" height="26" rx="6" fill="#9E9E9E"/>
<path d="M12.9193 24.293V25.9982L16.908 26L16.9411 23.7017C16.9593 22.4377 16.9743 20.3004 16.9743 18.9521L16.9744 16.5008H18.6039C20.3873 16.5008 20.4537 16.4907 20.6 16.1974C20.6428 16.1117 20.7508 15.3726 20.8617 14.4067C21.0394 12.8597 21.0458 12.7536 20.9688 12.621C20.9238 12.5435 20.8273 12.4334 20.7544 12.3764C20.6282 12.2776 20.5318 12.2719 18.7669 12.2572L16.9121 12.2418L16.9371 10.6749C16.964 8.99069 16.989 8.80657 17.2452 8.40539C17.3826 8.19024 17.7153 7.96129 18.0146 7.8759C18.1171 7.84664 18.7231 7.80841 19.3614 7.79092C21.018 7.74547 20.9432 7.84166 20.9197 5.78764C20.9048 4.4771 20.9011 4.43404 20.7895 4.27197C20.7185 4.16878 20.604 4.08484 20.4892 4.05179C20.2504 3.98305 18.1254 3.98263 17.3782 4.05117C15.309 4.24094 13.9274 5.28186 13.2739 7.14331C13.0074 7.90246 12.9596 8.35662 12.9324 10.3888L12.9075 12.2402L11.6744 12.2568C10.3411 12.2748 10.2502 12.2922 10.099 12.5574C10.0259 12.6857 10.0156 12.9086 10.0156 14.3714C10.0156 16.2024 10.025 16.2671 10.3144 16.4221C10.4343 16.4863 10.6931 16.5008 11.7235 16.5008H12.9858L12.9525 19.5443C12.9342 21.2182 12.9193 23.3552 12.9193 24.293Z" fill="white"/>
</svg>
