<svg width="124" height="37" viewBox="0 0 124 37" fill="none" xmlns="http://www.w3.org/2000/svg">
<path d="M118.46 0H4.57118C2.05522 0 0.015625 2.07068 0.015625 4.625V32.375C0.015625 34.9293 2.05522 37 4.57118 37H118.46C120.976 37 123.016 34.9293 123.016 32.375V4.625C123.016 2.07068 120.976 0 118.46 0Z" fill="#1D1D1F"/>
<path d="M62.1011 16.8521C61.3335 16.854 60.5836 17.0869 59.9463 17.5214C59.309 17.9559 58.813 18.5725 58.5209 19.2932C58.2288 20.0139 58.1538 20.8064 58.3053 21.5704C58.4568 22.3345 58.8281 23.0357 59.3722 23.5855C59.9163 24.1353 60.6087 24.5089 61.362 24.6592C62.1152 24.8094 62.8954 24.7296 63.604 24.4296C64.3125 24.1297 64.9175 23.6232 65.3425 22.9742C65.7675 22.3251 65.9934 21.5627 65.9916 20.7834C65.999 20.2635 65.9033 19.7474 65.7102 19.2658C65.5171 18.7842 65.2305 18.347 64.8675 17.9802C64.5045 17.6134 64.0725 17.3245 63.5972 17.1307C63.122 16.9369 62.6132 16.8421 62.1011 16.8521ZM62.1011 23.1699C61.6306 23.2033 61.1611 23.0922 60.7536 22.8511C60.346 22.61 60.0194 22.25 59.8161 21.8179C59.6128 21.3858 59.5422 20.9017 59.6135 20.4283C59.6848 19.955 59.8948 19.5143 60.216 19.1637C60.5373 18.8131 60.955 18.5687 61.4149 18.4623C61.8747 18.3559 62.3555 18.3925 62.7946 18.5672C63.2338 18.7418 63.6111 19.0466 63.8773 19.4419C64.1436 19.8371 64.2866 20.3045 64.2878 20.7834C64.3025 21.0868 64.2572 21.3901 64.1545 21.6755C64.0519 21.9608 63.894 22.2224 63.6902 22.4448C63.4864 22.6673 63.2408 22.846 62.9679 22.9705C62.695 23.0951 62.4003 23.1628 62.1011 23.1699ZM53.6096 16.8521C52.8419 16.854 52.092 17.0869 51.4548 17.5214C50.8175 17.9559 50.3214 18.5725 50.0293 19.2932C49.7372 20.0139 49.6622 20.8064 49.8137 21.5704C49.9653 22.3345 50.3365 23.0357 50.8806 23.5855C51.4247 24.1353 52.1172 24.5089 52.8704 24.6592C53.6237 24.8094 54.4039 24.7296 55.1124 24.4296C55.8209 24.1297 56.426 23.6232 56.851 22.9742C57.2759 22.3251 57.5018 21.5627 57.5 20.7834C57.5074 20.2635 57.4117 19.7474 57.2186 19.2658C57.0255 18.7842 56.7389 18.347 56.3759 17.9802C56.0129 17.6134 55.5809 17.3245 55.1057 17.1307C54.6304 16.9369 54.1216 16.8421 53.6096 16.8521ZM53.6096 23.1699C53.1391 23.2033 52.6695 23.0922 52.262 22.8511C51.8545 22.61 51.5278 22.25 51.3245 21.8179C51.1212 21.3858 51.0506 20.9017 51.1219 20.4283C51.1933 19.955 51.4032 19.5143 51.7244 19.1637C52.0457 18.8131 52.4634 18.5687 52.9233 18.4623C53.3832 18.3559 53.8639 18.3925 54.3031 18.5672C54.7423 18.7418 55.1195 19.0466 55.3858 19.4419C55.6521 19.8371 55.7951 20.3045 55.7962 20.7834C55.8109 21.0868 55.7656 21.3901 55.663 21.6755C55.5603 21.9608 55.4025 22.2224 55.1987 22.4448C54.9949 22.6673 54.7493 22.846 54.4763 22.9705C54.2034 23.0951 53.9087 23.1628 53.6096 23.1699ZM43.5145 18.0639V19.7289H47.4505C47.3887 20.5131 47.0677 21.2531 46.5393 21.8286C46.1445 22.237 45.6696 22.5567 45.1454 22.7671C44.6212 22.9774 44.0594 23.0737 43.4962 23.0496C42.3364 23.0496 41.224 22.5818 40.4038 21.7492C39.5837 20.9165 39.1229 19.7872 39.1229 18.6096C39.1229 17.4321 39.5837 16.3027 40.4038 15.4701C41.224 14.6374 42.3364 14.1696 43.4962 14.1696C44.6082 14.1528 45.6819 14.5816 46.4847 15.3629L47.6418 14.1881C47.0988 13.6428 46.454 13.2131 45.7453 12.924C45.0366 12.6349 44.2781 12.4923 43.5145 12.5046C42.7045 12.4726 41.8965 12.607 41.1388 12.8996C40.3812 13.1922 39.6896 13.6371 39.1054 14.2076C38.5212 14.778 38.0564 15.4624 37.7389 16.2196C37.4215 16.9768 37.2578 17.7913 37.2578 18.6143C37.2578 19.4372 37.4215 20.2517 37.7389 21.0089C38.0564 21.7661 38.5212 22.4505 39.1054 23.0209C39.6896 23.5914 40.3812 24.0363 41.1388 24.3289C41.8965 24.6215 42.7045 24.7559 43.5145 24.7239C44.2938 24.7555 45.071 24.6193 45.7949 24.3244C46.5188 24.0295 47.173 23.5824 47.7147 23.0126C48.6715 21.9456 49.1813 20.5421 49.136 19.0999C49.1393 18.7527 49.1118 18.406 49.054 18.0639H43.5145ZM84.7969 19.3589C84.5593 18.6492 84.1149 18.0295 83.5227 17.5818C82.9305 17.1342 82.2183 16.8797 81.4805 16.8521C80.9821 16.8511 80.4888 16.9539 80.0311 17.1542C79.5734 17.3544 79.161 17.6478 78.8194 18.0163C78.4779 18.3847 78.2144 18.8204 78.0452 19.2963C77.8761 19.7723 77.8049 20.2784 77.836 20.7834C77.8282 21.6278 78.0897 22.4521 78.5814 23.1331C79.0731 23.8142 79.7686 24.3155 80.5641 24.5621C81.3596 24.8088 82.2123 24.7876 82.9949 24.5016C83.7775 24.2157 84.448 23.6803 84.9062 22.9756L83.5851 22.0506C83.3882 22.3839 83.1088 22.6591 82.7748 22.8489C82.4408 23.0388 82.0637 23.1367 81.6809 23.1329C81.286 23.1494 80.8954 23.0443 80.5604 22.8314C80.2255 22.6184 79.9618 22.3075 79.804 21.9396L84.9882 19.7659L84.7969 19.3589ZM79.5125 20.6724C79.494 20.3855 79.5322 20.0978 79.6249 19.8262C79.7176 19.5546 79.8629 19.3045 80.0523 19.0908C80.2416 18.877 80.4711 18.7039 80.7273 18.5815C80.9836 18.4592 81.2613 18.3901 81.5442 18.3784C81.8368 18.3594 82.1284 18.4282 82.3828 18.5762C82.6371 18.7242 82.843 18.9449 82.9747 19.2109L79.5125 20.6724ZM75.3031 24.4834H77.0069V12.9209H75.3031V24.4834ZM72.5151 17.7309H72.4513C72.1926 17.445 71.8767 17.2187 71.5246 17.0671C71.1726 16.9155 70.7927 16.8422 70.4105 16.8521C69.4148 16.9011 68.4758 17.3372 67.7883 18.07C67.1007 18.8027 66.7171 19.776 66.7171 20.788C66.7171 21.8 67.1007 22.7733 67.7883 23.506C68.4758 24.2388 69.4148 24.6749 70.4105 24.7239C70.7967 24.7317 71.18 24.6529 71.5328 24.493C71.8856 24.3331 72.1992 24.0961 72.4513 23.7989H72.5151V24.3631C72.5151 25.8709 71.7225 26.6756 70.4469 26.6756C70.0208 26.6661 69.6071 26.5283 69.2583 26.2796C68.9095 26.0309 68.6414 25.6826 68.488 25.2789L67.012 25.8986C67.2849 26.5945 67.7594 27.1898 68.3727 27.606C68.986 28.0222 69.7093 28.2397 70.4469 28.2296C72.4422 28.2296 74.0913 27.0364 74.0913 24.1319V17.0834H72.5151V17.7309ZM70.5562 23.1699C69.9593 23.1321 69.399 22.8647 68.9894 22.4222C68.5798 21.9796 68.3518 21.3952 68.3518 20.788C68.3518 20.1808 68.5798 19.5964 68.9894 19.1538C69.399 18.7113 69.9593 18.4439 70.5562 18.4061C70.848 18.4189 71.1343 18.4911 71.398 18.6185C71.6617 18.7459 71.8975 18.9259 72.0913 19.1477C72.2851 19.3695 72.433 19.6286 72.5261 19.9096C72.6193 20.1906 72.6558 20.4877 72.6336 20.7834C72.6584 21.08 72.6238 21.3787 72.5317 21.6613C72.4396 21.944 72.292 22.2047 72.0978 22.4278C71.9036 22.6509 71.6669 22.8317 71.4019 22.9592C71.137 23.0868 70.8493 23.1584 70.5562 23.1699ZM92.7782 12.9209H88.6965V24.4834H90.4002V20.0989H92.7782C93.2638 20.1343 93.7514 20.0678 94.2105 19.9034C94.6696 19.7391 95.0905 19.4805 95.4469 19.1438C95.8032 18.8071 96.0875 18.3994 96.2818 17.9462C96.4761 17.4931 96.5764 17.0041 96.5764 16.5099C96.5764 16.0156 96.4761 15.5267 96.2818 15.0735C96.0875 14.6203 95.8032 14.2127 95.4469 13.8759C95.0905 13.5392 94.6696 13.2806 94.2105 13.1163C93.7514 12.952 93.2638 12.8855 92.7782 12.9209ZM92.7782 18.4709H90.4002V14.5304H92.8147C93.3318 14.5304 93.8277 14.7389 94.1934 15.1102C94.559 15.4814 94.7645 15.9849 94.7645 16.5099C94.7645 17.0349 94.559 17.5384 94.1934 17.9096C93.8277 18.2808 93.3318 18.4894 92.8147 18.4894L92.7782 18.4709ZM103.292 16.8151C102.672 16.7763 102.054 16.9229 101.515 17.2369C100.975 17.5509 100.539 18.0185 100.258 18.5819L101.762 19.2201C101.914 18.9421 102.142 18.7146 102.418 18.5653C102.695 18.4159 103.008 18.351 103.32 18.3784C103.536 18.3527 103.755 18.3711 103.964 18.4323C104.174 18.4936 104.369 18.5965 104.538 18.7352C104.708 18.8738 104.849 19.0453 104.952 19.2398C105.056 19.4342 105.12 19.6476 105.142 19.8676V19.9786C104.594 19.6862 103.984 19.5339 103.365 19.5346C101.744 19.5346 100.085 20.4596 100.085 22.1431C100.101 22.501 100.188 22.8519 100.34 23.175C100.493 23.4982 100.707 23.7869 100.972 24.0242C101.236 24.2615 101.544 24.4424 101.879 24.5563C102.213 24.6701 102.567 24.7145 102.919 24.6869C103.346 24.7109 103.773 24.619 104.154 24.4207C104.535 24.2224 104.857 23.9248 105.087 23.5584H105.142V24.4834H106.782V20.0341C106.782 18.0084 105.27 16.8336 103.329 16.8336L103.292 16.8151ZM103.083 23.1514C102.527 23.1514 101.753 22.8646 101.753 22.1709C101.753 21.2459 102.718 20.9314 103.575 20.9314C104.116 20.9178 104.651 21.052 105.124 21.3199C105.067 21.8222 104.832 22.2865 104.463 22.6266C104.095 22.9668 103.617 23.1598 103.119 23.1699L103.083 23.1514ZM112.759 17.0834L110.809 22.0969H110.754L108.732 17.0834H106.91L109.944 24.0949L108.212 27.9891H110.035L114.654 17.0834H112.759ZM97.4522 24.4834H99.1469V12.9209H97.4522V24.4834Z" fill="white"/>
<path d="M9.52384 6.98663C9.22535 7.36441 9.08469 7.84596 9.13206 8.32788V28.7704C9.10432 29.2405 9.25421 29.7036 9.55117 30.0654L9.62406 30.1394L20.8763 18.6416V18.3641L9.59672 6.92188L9.52384 6.98663Z" fill="#5BC9F4"/>
<path d="M24.6112 22.4503L20.8574 18.6393V18.3618L24.6112 14.5508H24.7023L29.1668 17.1685C30.4332 17.8993 30.4332 19.1018 29.1668 19.8325L24.7114 22.404L24.6112 22.4503Z" fill="url(#paint0_linear_2950_72031)"/>
<path d="M24.7169 22.4035L20.872 18.5L9.51953 30.0163C9.77871 30.25 10.1106 30.3836 10.4571 30.3938C10.8037 30.4039 11.1426 30.2899 11.4146 30.0717L24.7169 22.4035Z" fill="url(#paint1_linear_2950_72031)"/>
<path d="M24.7169 14.5963L11.4146 6.92809C11.1426 6.70994 10.8037 6.59594 10.4571 6.60609C10.1106 6.61624 9.77871 6.74988 9.51953 6.98359L20.872 18.4998L24.7169 14.5963Z" fill="url(#paint2_linear_2950_72031)"/>
<path d="M118.46 0.74C119.475 0.74 120.448 1.14931 121.166 1.87789C121.884 2.60647 122.287 3.59463 122.287 4.625V32.375C122.287 33.4054 121.884 34.3935 121.166 35.1221C120.448 35.8507 119.475 36.26 118.46 36.26H4.57118C3.55629 36.26 2.58296 35.8507 1.86532 35.1221C1.14768 34.3935 0.744514 33.4054 0.744514 32.375V4.625C0.744514 3.59463 1.14768 2.60647 1.86532 1.87789C2.58296 1.14931 3.55629 0.74 4.57118 0.74H118.46ZM118.46 0H4.57118C3.36297 0 2.20425 0.487275 1.34992 1.35463C0.495584 2.22199 0.015625 3.39837 0.015625 4.625L0.015625 32.375C0.015625 33.6016 0.495584 34.778 1.34992 35.6454C2.20425 36.5127 3.36297 37 4.57118 37H118.46C119.668 37 120.827 36.5127 121.681 35.6454C122.536 34.778 123.016 33.6016 123.016 32.375V4.625C123.016 3.39837 122.536 2.22199 121.681 1.35463C120.827 0.487275 119.668 0 118.46 0V0Z" fill="#1D1D1F"/>
<defs>
<linearGradient id="paint0_linear_2950_72031" x1="28.3376" y1="18.5005" x2="6.30698" y2="18.5005" gradientUnits="userSpaceOnUse">
<stop stop-color="#FEE000"/>
<stop offset="0.42" stop-color="#FBBC0E"/>
<stop offset="0.78" stop-color="#FAA418"/>
<stop offset="1" stop-color="#F99B1C"/>
</linearGradient>
<linearGradient id="paint1_linear_2950_72031" x1="22.6213" y1="20.6183" x2="1.58922" y2="41.3345" gradientUnits="userSpaceOnUse">
<stop stop-color="#EF4547"/>
<stop offset="1" stop-color="#C6186D"/>
</linearGradient>
<linearGradient id="paint2_linear_2950_72031" x1="1.81153" y1="-4.7454" x2="18.9867" y2="12.1627" gradientUnits="userSpaceOnUse">
<stop stop-color="#279E6F"/>
<stop offset="0.04" stop-color="#2BA06F"/>
<stop offset="0.46" stop-color="#53B26C"/>
<stop offset="0.8" stop-color="#6BBD6A"/>
<stop offset="1" stop-color="#74C169"/>
</linearGradient>
</defs>
</svg>
