<svg width="27" height="26" viewBox="0 0 27 26" fill="none" xmlns="http://www.w3.org/2000/svg">
<rect x="0.015625" width="26" height="26" rx="6" fill="#9E9E9E"/>
<path d="M9.82273 13.0575C9.82273 11.2794 11.2638 9.83758 13.0419 9.83758C14.82 9.83758 16.2619 11.2794 16.2619 13.0575C16.2619 14.8357 14.82 16.2775 13.0419 16.2775C11.2638 16.2775 9.82273 14.8357 9.82273 13.0575ZM8.08208 13.0575C8.08208 15.7969 10.3026 18.0174 13.0419 18.0174C15.7812 18.0174 18.0018 15.7969 18.0018 13.0575C18.0018 10.3182 15.7812 8.09771 13.0419 8.09771C10.3026 8.09771 8.08216 10.3181 8.08216 13.0575H8.08208ZM17.0391 7.90105C17.039 8.1303 17.1069 8.35442 17.2342 8.54508C17.3615 8.73575 17.5424 8.88438 17.7542 8.9722C17.966 9.06001 18.199 9.08306 18.4239 9.03842C18.6487 8.99379 18.8553 8.88348 19.0175 8.72144C19.1796 8.55941 19.2901 8.35292 19.3349 8.1281C19.3797 7.90327 19.3569 7.67021 19.2692 7.45838C19.1816 7.24654 19.0331 7.06546 18.8425 6.93802C18.652 6.81058 18.4279 6.74251 18.1986 6.74242H18.1982C17.8909 6.74256 17.5962 6.86466 17.3789 7.08191C17.1616 7.29915 17.0394 7.59376 17.0391 7.90105ZM9.13964 20.9199C8.19792 20.877 7.68606 20.7202 7.34591 20.5876C6.89494 20.4121 6.57318 20.203 6.23488 19.8651C5.89658 19.5273 5.68717 19.2058 5.51238 18.7549C5.37977 18.4149 5.22291 17.9029 5.1801 16.9611C5.13327 15.943 5.12392 15.6371 5.12392 13.0577C5.12392 10.4783 5.13405 10.1733 5.1801 9.15426C5.22299 8.21254 5.38101 7.70153 5.51238 7.36053C5.68794 6.90956 5.89704 6.5878 6.23488 6.2495C6.57271 5.9112 6.89417 5.70179 7.34591 5.527C7.68591 5.3944 8.19792 5.23753 9.13964 5.19472C10.1578 5.14789 10.4636 5.13855 13.0419 5.13855C15.6202 5.13855 15.9264 5.14851 16.9454 5.19488C17.8871 5.23776 18.3981 5.39579 18.7391 5.52715C19.1901 5.70194 19.5118 5.91181 19.8501 6.24965C20.1884 6.58749 20.3971 6.90972 20.5726 7.36068C20.7052 7.70068 20.8621 8.21269 20.9049 9.15442C20.9517 10.1734 20.9611 10.4784 20.9611 13.0579C20.9611 15.6373 20.9517 15.9423 20.9049 16.9613C20.862 17.903 20.7044 18.4149 20.5726 18.755C20.3971 19.206 20.188 19.5278 19.8501 19.8653C19.5123 20.2028 19.1901 20.4122 18.7391 20.5878C18.3991 20.7204 17.8871 20.8772 16.9454 20.9201C15.9272 20.9669 15.6214 20.9762 13.0419 20.9762C10.4625 20.9762 10.1575 20.9669 9.13964 20.9201V20.9199ZM9.05966 3.45693C8.03139 3.50376 7.32875 3.66681 6.71513 3.90558C6.08002 4.15216 5.54166 4.48296 5.00407 5.0197C4.46649 5.55644 4.13653 6.09487 3.88995 6.73075C3.65118 7.34476 3.48814 8.04702 3.44131 9.07529C3.39371 10.1052 3.38281 10.4344 3.38281 13.0575C3.38281 15.6806 3.39371 16.0099 3.44131 17.0398C3.48814 18.0681 3.65118 18.7703 3.88995 19.3843C4.13653 20.0194 4.46656 20.5589 5.00407 21.0954C5.54158 21.6319 6.07925 21.9622 6.71513 22.2095C7.32991 22.4483 8.03139 22.6113 9.05966 22.6582C10.0901 22.705 10.4188 22.7167 13.0419 22.7167C15.665 22.7167 15.9943 22.7058 17.0242 22.6582C18.0525 22.6113 18.7547 22.4483 19.3687 22.2095C20.0038 21.9622 20.5422 21.6321 21.0798 21.0954C21.6174 20.5587 21.9466 20.0194 22.1939 19.3843C22.4327 18.7703 22.5965 18.0681 22.6425 17.0398C22.6894 16.0091 22.7003 15.6806 22.7003 13.0575C22.7003 10.4344 22.6894 10.1052 22.6425 9.07529C22.5957 8.04694 22.4327 7.34438 22.1939 6.73075C21.9466 6.09565 21.6165 5.55729 21.0798 5.0197C20.543 4.48211 20.0038 4.15216 19.3695 3.90558C18.7547 3.66681 18.0524 3.50299 17.025 3.45693C15.9949 3.40987 15.6658 3.39844 13.0431 3.39844C10.4204 3.39844 10.0905 3.40933 9.06005 3.45693" fill="white"/>
</svg>
