<svg width="25" height="24" viewBox="0 0 25 24" fill="none" xmlns="http://www.w3.org/2000/svg">
<path fill-rule="evenodd" clip-rule="evenodd" d="M3.68793 6.88373C3.00863 8.03334 2.78507 9.54025 3.00098 10.8356C3.42567 13.3834 5.63529 15.6795 7.9797 17.4158C9.12304 18.2625 10.2408 18.9342 11.0742 19.3944C11.4589 19.6068 11.781 19.7731 12.0146 19.8898C12.2482 19.7731 12.5704 19.6068 12.955 19.3944C13.7885 18.9342 14.9063 18.2625 16.0496 17.4158C18.394 15.6795 20.6037 13.3835 21.0283 10.8356C21.2442 9.54027 21.0206 8.03335 20.3413 6.88373C19.6872 5.77693 18.6208 5 17.0147 5C15.4075 5 14.4282 5.78198 13.8146 6.60001C13.5017 7.01722 13.2898 7.43971 13.1564 7.75963C13.0903 7.91826 13.0451 8.04799 13.0174 8.13415C13.0036 8.17712 12.9943 8.20893 12.9889 8.2277L12.984 8.24572L12.9844 8.24416C12.9841 8.24522 12.9842 8.24466 12.984 8.24572C12.9839 8.24607 12.984 8.2455 12.984 8.24572C12.8713 8.68873 12.4721 9.00001 12.0146 9C11.5571 8.99999 11.1581 8.68955 11.0455 8.24651C11.0454 8.2463 11.0456 8.24684 11.0455 8.24651L11.0403 8.22766C11.035 8.2089 11.0256 8.17709 11.0118 8.13412C10.9841 8.04796 10.9389 7.91823 10.8728 7.7596C10.7395 7.43969 10.5275 7.0172 10.2146 6.59999C9.60113 5.78198 8.62178 4.99999 7.01456 5C5.40833 5.00001 4.34193 5.77695 3.68793 6.88373ZM12.0146 8C11.0445 8.24252 11.0446 8.24295 11.0447 8.24337L11.0452 8.24538L11.0455 8.24651M12.0146 5.68095C11.9517 5.58783 11.8851 5.49398 11.8146 5.4C10.9281 4.218 9.40747 2.99999 7.01455 3C4.62065 3.00001 2.93704 4.22307 1.96607 5.86628C1.02041 7.46667 0.744057 9.45975 1.0282 11.1644C1.59001 14.5349 4.38041 17.2389 6.78938 19.023C8.02274 19.9364 9.21999 20.6551 10.1074 21.1452C10.5521 21.3907 10.9212 21.5801 11.1811 21.709C11.3112 21.7734 11.414 21.8229 11.4856 21.8567C11.5213 21.8736 11.5493 21.8866 11.5689 21.8957L11.5919 21.9063L11.5987 21.9094L11.6008 21.9104C11.6011 21.9105 11.6021 21.9109 12.0146 21L11.6021 21.9109C11.8643 22.0297 12.1649 22.0297 12.4271 21.911L12.0146 21C12.4271 21.911 12.4268 21.9111 12.4271 21.911L12.4306 21.9094L12.4373 21.9063L12.4604 21.8957C12.4799 21.8866 12.5079 21.8736 12.5437 21.8567C12.6152 21.8229 12.7181 21.7734 12.8481 21.709C13.108 21.5801 13.4772 21.3907 13.9218 21.1452C14.8093 20.6551 16.0065 19.9364 17.2399 19.023C19.6489 17.2389 22.4393 14.5349 23.0011 11.1644C23.2852 9.45973 23.0088 7.46665 22.0631 5.86627C21.0921 4.22307 19.4085 3 17.0147 3C14.6218 3 13.1012 4.21802 12.2147 5.39999C12.1442 5.49398 12.0776 5.58783 12.0146 5.68095Z" fill="#686870"/>
</svg>
