<svg width="221" height="48" viewBox="0 0 221 48" fill="none" xmlns="http://www.w3.org/2000/svg">
<path fill-rule="evenodd" clip-rule="evenodd" d="M45.6182 16.6997C45.0048 15.2637 44.3236 13.6686 41.4815 14.6453V6.89655C41.4815 2.89523 34.7347 0 26.5151 0C18.2956 0 11.5488 2.89523 11.5488 6.89655V41.1034C11.5488 45.1048 18.2956 48 26.5151 48C34.7347 48 41.4815 45.1048 41.4815 41.1034V20.4599C44.0168 20.7935 44.5638 22.7863 44.0903 24.8474L46.6991 25.2612C47.2844 21.4816 45.9986 18.9679 41.4815 18.7711V17.1948C43.2171 16.3589 44.2783 17.7252 45.3663 19.1262C46.2586 20.275 47.1689 21.4471 48.4841 21.4471C50.4063 21.4471 51.9167 20.4816 53.0151 18.5505L50.681 15.3781C50.2233 17.4931 49.1248 18.5505 47.3856 18.5505C46.4087 18.5505 46.0286 17.6607 45.6182 16.6997ZM30.505 25.737C29.1744 25.4131 27.8065 25.0801 26.4601 25.0801C25.092 25.0801 23.7098 25.42 22.3703 25.7494C18.8729 26.6094 15.6662 27.398 13.7604 21.879C11.4357 15.1465 16.7425 16.6302 21.581 17.9829C23.4585 18.5078 25.2654 19.013 26.5287 19.0109C27.7428 19.0088 29.486 18.5356 31.3088 18.0407L31.3088 18.0407C36.1056 16.7385 41.4536 15.2867 39.16 21.879C37.2465 27.378 34.0049 26.5889 30.505 25.737ZM19.7808 20.7469C19.1914 20.4767 18.6079 20.2286 18.0572 20.049C17.9803 21.0237 18.4008 21.9303 19.339 22.8138C20.1579 23.585 20.9295 23.675 21.7571 23.0086C22.0297 22.7081 22.2659 22.369 22.4658 21.9914C22.1292 21.8503 21.7787 21.6901 21.4208 21.5219C21.43 21.5796 21.4348 21.6387 21.4348 21.699C21.4348 22.3085 20.943 22.8025 20.3364 22.8025C19.7297 22.8025 19.2379 22.3085 19.2379 21.699C19.2379 21.2932 19.456 20.9386 19.7808 20.7469ZM14.8442 21.0094C15.1986 19.9412 15.9841 19.6619 16.9789 19.7909C16.8111 21.1648 17.3552 22.458 18.5877 23.6188C18.9429 23.9533 19.3022 24.1983 19.6629 24.3556C19.0865 24.5544 18.4414 24.6804 17.7276 24.7335C20.5183 25.2592 22.5197 24.4911 23.7318 22.4292C24.8959 22.7109 25.6913 22.4358 25.6913 20.8715C25.286 22.4999 23.4405 21.3818 21.3795 20.1332C18.5527 18.4205 15.3206 16.4624 14.8442 21.0094ZM31.6019 21.4993C31.2407 21.6858 30.8865 21.8604 30.5448 22.0068C30.7455 22.3874 30.983 22.7288 31.2574 23.0312C32.0849 23.6977 32.8566 23.6076 33.6754 22.8364C34.6576 21.9114 35.0725 20.9611 34.9431 19.9339C34.3503 20.111 33.7322 20.3947 33.1136 20.7084C33.5036 20.8778 33.7765 21.2677 33.7765 21.7217C33.7765 22.3311 33.2847 22.8251 32.678 22.8251C32.0714 22.8251 31.5796 22.3311 31.5796 21.7217C31.5796 21.6455 31.5873 21.5712 31.6019 21.4993ZM27.5867 21.7217C28.0015 22.3328 28.5778 22.4964 29.2541 22.4028C30.4631 24.5015 32.4741 25.286 35.2868 24.7562C34.573 24.7031 33.9279 24.5771 33.3515 24.3782C33.7122 24.2209 34.0715 23.976 34.4267 23.6414C35.6797 22.4614 36.2212 21.1444 36.0266 19.745C36.8651 19.7257 37.6087 20.0648 38.1703 21.032C37.6362 16.0912 34.5786 18.0921 31.7257 19.959C30.1185 21.0107 28.5763 22.0199 27.5867 21.7217ZM27.0375 19.6527C27.0375 20.4218 27.4494 21.032 28.1359 21.17C27.4494 21.3079 26.6256 20.7562 27.0375 19.6527ZM39.5592 6.89655C39.5592 9.59882 33.7643 12.1379 26.5151 12.1379C19.266 12.1379 13.4711 9.59882 13.4711 6.89655C13.4711 4.19428 19.266 1.65517 26.5151 1.65517C33.7643 1.65517 39.5592 4.19428 39.5592 6.89655Z" fill="#1D1D1F"/>
<ellipse cx="26.5159" cy="6.89632" rx="6.45337" ry="2.75862" fill="#FF6633"/>
<path fill-rule="evenodd" clip-rule="evenodd" d="M80.8814 32.0036H80.2513C80.2513 31.8626 80.038 31.7182 79.6118 31.5706C78.5487 30.4157 78.0172 27.415 78.0172 22.568C77.9515 22.568 77.9191 22.424 77.9191 22.135C77.9191 22.0613 77.9515 22.0242 78.0172 22.0242L77.9191 21.4808V20.5035C77.9191 20.4363 77.9515 20.4031 78.0172 20.4031C77.9515 20.2621 77.9191 20.1513 77.9191 20.0705L78.0172 17.4727H78.1255C78.1255 17.3989 78.0897 17.3618 78.0172 17.3618C78.1089 16.3819 78.1814 15.8045 78.2339 15.6294C78.2339 15.5557 78.1976 15.519 78.1255 15.519C78.1255 15.4448 78.1618 15.3374 78.2339 15.1969C78.306 13.3711 78.3418 11.9243 78.3418 10.8566C78.3418 9.67512 78.2011 8.15446 77.9191 6.2951C78.2271 5.71765 78.5453 5.42871 78.8734 5.42871C79.2804 5.42871 79.5265 5.61028 79.6118 5.97255C80.1301 6.09389 80.5892 6.45616 80.9897 7.06067C80.9897 7.2549 81.0618 7.46964 81.206 7.7049L81.4129 7.60408H81.5213C81.6591 8.59093 81.7278 9.13128 81.7278 9.22512H81.9445V9.01387C82.2461 9.01387 82.4231 9.51712 82.4756 10.5245C82.5741 10.5245 82.7153 11.0312 82.8988 12.0447C82.9713 12.0447 83.0071 12.0818 83.0071 12.1556C83.0071 12.2293 82.9713 12.2664 82.8988 12.2664L83.214 14.5422C83.1419 14.932 83.1057 15.2571 83.1057 15.519V16.7071C83.1057 16.8751 83.0728 17.0231 83.0071 17.1505C83.0728 17.2845 83.1057 17.3919 83.1057 17.4727C82.8497 20.1443 82.6398 21.4808 82.4756 21.4808L82.584 22.2459V24.1991C82.584 24.3601 82.5481 24.5046 82.4756 24.6321C82.5481 24.76 82.584 24.904 82.584 25.0655V25.1759C82.584 25.3173 82.5119 25.3876 82.3677 25.3876C82.3677 25.3138 82.3314 25.2767 82.2593 25.2767V25.3876L82.4756 25.7097V25.9314L82.0528 29.4053L81.5213 30.2713C81.285 30.2713 81.0717 30.3786 80.8814 30.5938C80.8814 30.6671 80.9172 30.7042 80.9897 30.7042L80.8814 31.7924V32.0036ZM88.1639 35.8409C91.5477 37.0752 93.8744 37.7264 95.1431 37.7932C95.1431 37.7932 98.7112 38.5955 100.368 37.6269C103.354 35.8811 102.588 24.0462 102.588 24.0462L102.821 20.6631C102.854 18.2804 102.633 15.7284 102.157 13.0079L102.109 12.8817C101.823 12.1226 101.015 9.97875 101.107 9.51436C101.26 9.17653 101.398 9.0194 101.52 9.04472L101.829 9.10801C101.856 8.97008 101.905 8.9081 101.976 8.92251L102.497 9.03031L102.518 8.92163L103.22 9.17871L103.201 9.27779C102.995 9.23502 102.878 9.28608 102.85 9.43143L103.083 9.3664L103.18 9.38604L103.158 9.49472L102.894 9.76926C102.873 9.87445 102.955 10.0006 103.141 10.1485L103.353 10.1922C103.39 10.001 103.521 9.88099 103.745 9.83124L103.764 9.73259L104.179 9.8177C104.157 9.92944 104.538 10.3746 105.322 11.152C105.941 11.9232 106.515 13.0371 107.045 14.4953C107.556 16.6615 107.763 17.995 107.664 18.4952L107.558 18.4729C107.683 19.6767 107.766 21.0939 107.807 22.7254C107.709 22.8494 107.652 22.9502 107.637 23.0296C107.849 23.0729 107.904 23.711 107.802 24.9436L107.656 25.1286L107.526 27.9879C107.287 28.4868 107.157 28.7889 107.137 28.894L107.116 29.5579L107.213 29.5776L107.447 29.5125L107.404 29.7299L107.257 29.9154C107.328 29.9298 107.356 29.9734 107.342 30.0459C107.271 30.0315 107.229 30.0599 107.215 30.1323L107.423 30.1755C108.319 28.8747 108.966 27.8261 109.366 27.0296C109.366 26.8751 109.579 26.6237 110.005 26.2745L111.59 22.6994C111.518 22.6597 111.481 22.4043 111.481 21.9342C111.98 20.8535 112.298 20.3132 112.436 20.3132C112.955 19.1583 113.804 16.6979 114.986 12.9321L115.94 10.6563C115.868 10.5149 115.832 10.4075 115.832 10.3338C116.094 10.3338 116.481 10.0082 116.993 9.35694H117.426L117.525 9.78992H117.633C117.777 9.78992 117.849 9.71615 117.849 9.56819L118.903 9.67905H119.119C119.119 9.89423 119.188 10.0016 119.326 10.0016H119.434C119.434 9.78642 119.506 9.67905 119.651 9.67905H119.759C119.897 9.69913 119.966 9.77289 119.966 9.90078L120.182 9.78992H120.281V10.2229H120.497C120.635 10.2229 120.704 10.1491 120.704 10.0016V9.90078L120.605 9.67905L121.137 9.56819H121.344L121.235 9.78992V10.1125C121.379 10.1125 121.452 10.2565 121.452 10.5454H122.298C122.298 10.6192 122.262 10.6563 122.19 10.6563C122.223 11.0186 122.331 11.1997 122.515 11.1997V11.8439C122.554 12.6165 122.764 13.1599 123.145 13.4755C123.145 13.5091 123.253 13.8718 123.469 14.5631L123.676 14.4523H123.785L124.207 16.0834C124.417 16.0834 124.522 16.2981 124.522 16.728C124.451 16.728 124.414 16.7651 124.414 16.8389L124.631 16.9498V16.8389C124.559 16.8389 124.522 16.8022 124.522 16.728H124.847C124.854 17.1374 125.064 17.9331 125.477 19.1151C125.405 19.511 125.369 19.7995 125.369 19.9806L125.585 20.0915C125.585 20.0177 125.622 19.9806 125.694 19.9806C125.694 20.1286 125.904 20.5982 126.324 21.3904C128.509 21.1757 129.818 21.0683 130.251 21.0683V21.29H130.034L130.142 21.8238L128.026 22.4781L128.125 22.6994C128.125 23.042 127.81 23.2568 127.18 23.344V23.4549H127.386V23.6766L127.18 23.9987V24.21C127.744 26.0427 128.203 27.6708 128.558 29.0941C128.558 29.2085 128.627 29.3525 128.764 29.5271V29.6379C128.764 29.7117 128.729 29.7484 128.656 29.7484L129.611 32.5684C129.545 32.5684 129.513 32.6051 129.513 32.6788C129.814 32.6788 130.129 33.7966 130.458 36.0322C130.221 36.0322 130.047 36.2134 129.936 36.5756H129.296C129.296 36.7973 129.119 36.9082 128.764 36.9082C128.515 36.6599 127.879 36.3679 126.855 36.0322C126.855 35.9183 126.327 35.7031 125.271 35.388C125.271 35.3072 125.057 35.1257 124.631 34.8441V34.6224L125.369 34.7333H125.694C125.831 34.7333 125.9 34.663 125.9 34.5216C125.9 34.2933 125.231 32.5208 123.893 29.205C123.893 28.7615 123.538 27.6407 122.829 25.8415C121.472 26.278 119.989 26.6036 118.381 26.8183C118.381 26.7441 118.345 26.7075 118.273 26.7075C118.273 26.9222 118.06 27.0663 117.633 27.1405C116.432 27.4224 115.832 27.8218 115.832 28.3386C115.386 29.789 114.963 30.7989 114.562 31.3698V31.702C114.772 31.702 114.877 31.7727 114.877 31.9137V32.0246L114.67 31.9137H114.454C114.244 32.4776 114.139 32.8399 114.139 33.0009L113.922 32.8905C113.922 33.0786 113.709 33.2964 113.283 33.5448C113.283 33.6792 112.896 34.3304 112.121 35.4984L111.905 35.5992H111.698L111.275 35.2771H111.167C111.029 35.2972 110.96 35.371 110.96 35.4984C111.025 35.6324 111.058 35.7398 111.058 35.8205L110.852 35.9314C110.76 35.8576 110.583 35.8205 110.32 35.8205C110.32 36.0353 110.179 36.1426 109.897 36.1426L108.195 34.955C107.758 34.955 107.334 34.4316 106.92 33.3851C106.885 33.8582 106.773 34.5762 106.584 35.5393L106.417 36.3878C106.32 36.8819 106.204 37.1145 106.069 37.087L105.966 38.1747L105.841 38.8067C105.462 39.9887 104.996 40.7045 104.446 40.9537C104.299 41.0702 104.036 41.1588 103.661 41.2213C103.653 41.2238 103.645 41.2267 103.638 41.2297L103.624 41.2348L103.616 41.2374C103.459 41.3698 103.446 41.4121 103.43 41.4605C103.417 41.5025 103.403 41.5491 103.291 41.6634C103.21 41.6996 103.023 41.7184 102.737 41.721V41.7236C102.563 41.8022 102.342 41.8214 102.073 41.7808C101.752 42.1671 101.504 42.3997 101.33 42.4779L100.281 42.4661C99.3272 42.5804 98.1391 42.6018 96.7177 42.5302C95.6243 41.9877 94.3291 41.5848 92.8318 41.3199C92.0869 40.7385 91.424 40.4465 90.8421 40.4443C90.7022 40.1187 89.7061 39.4195 87.8542 38.3462C87.2365 37.9936 86.8645 37.8452 86.7382 37.9023C86.2719 37.4008 85.9486 37.1905 85.7681 37.2716L85.5979 36.8753C87.3649 37.5837 88.3145 37.908 88.4463 37.8482L88.4028 37.7474L87.5159 37.3101L87.4762 37.218L87.5756 37.1734C87.594 37.2167 88.1566 37.4414 89.2641 37.8491C90.3707 38.2563 91.305 38.461 92.066 38.4632C92.6829 38.5819 93.0788 38.6016 93.2528 38.523L93.3518 38.4785C93.4601 38.43 93.4951 38.3371 93.4576 38.2C90.8545 37.5305 89.4714 37.0054 89.3072 36.6248L89.1617 36.8112C88.9638 36.9006 88.7654 36.7147 88.567 36.2538L88.378 36.3389L88.4612 36.5323L88.3618 36.5772C88.2458 36.307 88.0991 36.0574 87.922 35.8291L88.1204 35.7401L88.1639 35.8409ZM107.288 30.3706L107.292 30.364C107.288 30.3635 107.284 30.3628 107.28 30.3619C107.282 30.3634 107.283 30.365 107.285 30.3669L107.288 30.3706ZM69.623 33.67C69.623 34.1733 70.2595 34.4618 71.5324 34.5356C72.8054 34.4753 73.4419 34.2235 73.4419 33.7809C74.4982 32.2563 75.0263 31.0617 75.0263 30.1957C75.525 27.181 75.8432 24.9393 75.981 23.4689V23.368L75.5583 23.5793V23.368L75.6662 22.8246C75.5941 22.8246 75.5583 22.7875 75.5583 22.7138H75.6662C75.6662 19.2831 75.8074 16.8228 76.0894 15.3322V15.2314H75.8829C75.8829 15.5208 75.7746 15.6648 75.5583 15.6648C75.5583 15.7386 75.5941 15.8459 75.6662 15.9869L75.5583 17.0746C75.5583 17.1484 75.5941 17.2557 75.6662 17.3967C75.6662 17.4906 75.525 17.8162 75.243 18.3735H75.1346C75.1346 17.6486 75.0297 17.2858 74.8198 17.2858C74.8198 17.1449 74.9248 17.0746 75.1346 17.0746V16.309C75.1346 15.8394 75.1709 15.1179 75.243 14.1441H75.0263C75.0263 14.3052 74.9939 14.4492 74.9282 14.5771L75.0263 14.7984C74.8429 14.8255 74.7016 15.0035 74.6031 15.3322L74.7115 15.7757C74.7115 15.8429 74.6756 15.876 74.6031 15.876C74.6031 16.1445 74.6394 16.3256 74.7115 16.4199C74.6394 16.4199 74.5344 16.6748 74.3966 17.1855C74.4687 17.3059 74.505 17.4504 74.505 17.618V17.7193L74.2883 18.051L74.3966 18.2627H74.2883C74.2883 18.5045 74.3245 18.686 74.3966 18.8065C74.3506 19.2229 74.2456 19.5481 74.0818 19.7833L74.1803 20.0046H74.0818C74.0818 20.5821 73.9372 20.8706 73.6484 20.8706V20.9814L73.7567 21.6261C73.4026 22.2773 73.2252 22.9652 73.2252 23.6902H73.0187C73.0187 23.6164 73.0545 23.5793 73.1271 23.5793C73.1271 23.3982 73.0908 23.1097 73.0187 22.7138L73.2252 22.3917L73.1271 22.1699C73.2649 22.1699 73.3335 21.9888 73.3335 21.6261L73.2252 21.4144C73.2977 21.4144 73.4061 21.2333 73.5503 20.8706C73.4782 20.7431 73.4419 20.5987 73.4419 20.4376C73.4419 20.3438 73.511 19.9444 73.6484 19.2395V18.9174L73.5503 18.2627L73.6484 18.051L73.5503 17.5071L73.7567 16.9637C73.6846 16.8363 73.6484 16.6918 73.6484 16.5308L73.8651 16.2086H73.6484L73.9734 13.822L73.8651 13.6003C74.3506 12.6942 74.987 12.0801 75.7745 11.7575V11.5362C75.7745 11.3682 75.4563 11.2242 74.8198 11.1028C74.1637 11.5258 73.6684 12.1067 73.3335 12.8452V13.0565H73.5503V13.1673H73.3335L73.4419 13.389C73.4419 13.6976 73.3698 13.9866 73.2252 14.255L73.3335 14.4667C73.2154 15.2453 73.0746 15.715 72.9104 15.876L73.0187 16.0978C72.9466 16.0978 72.9104 16.1349 72.9104 16.2086V16.309H73.0187V17.5071C73.0187 17.7223 73.0878 17.8297 73.2252 17.8297C73.1138 17.9912 73.0089 18.3164 72.9104 18.8065C72.9104 20.4712 72.7691 21.304 72.4872 21.304V21.5152H72.6941C72.6941 21.5894 72.6612 21.6261 72.5955 21.6261L72.6941 22.1699C72.6215 22.1699 72.5166 22.2066 72.3788 22.2808C72.4509 22.7775 72.5234 23.1031 72.5955 23.2572C72.4577 23.3314 72.3494 23.368 72.2704 23.368V24.4457C72.1331 24.4457 72.064 24.5902 72.064 24.8787H71.9556C71.8178 24.8787 71.7129 24.6268 71.6408 24.1236C71.7786 23.66 71.8835 23.0093 71.9556 22.1699C71.8835 22.0425 71.8473 21.898 71.8473 21.737C71.8473 21.2267 71.9198 20.8274 72.064 20.5389C71.9919 20.4044 71.9556 20.297 71.9556 20.2163C71.7261 20.2163 71.5491 21.0858 71.4245 22.8246C71.4966 22.8246 71.5324 22.8578 71.5324 22.925C70.968 26.9868 70.332 29.4101 69.623 30.1957C69.492 29.5441 69.3508 29.2185 69.1998 29.2185C68.0087 24.7506 65.9679 20.8665 64.3733 17.8318C63.5961 16.3525 62.9249 15.0751 62.5098 14.0302C62.0836 13.506 61.8703 13.1804 61.8703 13.053H61.6634V13.1638L61.762 13.3856C61.5781 13.1638 61.2961 13.053 60.9156 13.053V12.9526H61.1319V12.7308C60.5675 12.7308 60.2855 12.5864 60.2855 12.2979L59.9878 12.3083C59.5548 12.6706 59.2365 12.8518 59.033 12.8518C59.033 12.503 58.8201 12.177 58.3935 11.8754C58.1832 11.9827 58.0783 12.0901 58.0783 12.1975C57.9998 12.1975 57.8914 12.1604 57.7536 12.0866C57.6355 12.0866 57.5668 12.1604 57.5472 12.3083L57.6551 12.52C57.583 12.52 57.5472 12.5567 57.5472 12.6305L57.3305 12.52H57.2323C57.1073 12.52 57.0352 12.5938 57.0156 12.7409V12.8518L57.2323 13.6073C57.9145 13.6073 58.6917 15.8861 59.5646 20.445H59.4562C59.5287 21.1429 59.6332 21.6833 59.7715 22.0661H59.6631C59.6631 22.3074 59.6989 22.4886 59.7715 22.6099L59.6631 23.1537C59.7352 23.7844 59.7715 24.1471 59.7715 24.241C59.6989 24.7512 59.6631 25.0402 59.6631 25.1069C59.8073 25.6844 59.8798 26.3526 59.8798 27.1108C59.8798 27.7554 59.8073 28.823 59.6631 30.3132C59.6631 31.7435 59.9485 32.7199 60.5193 33.2436V33.0219L60.4109 32.8006C60.4835 32.8006 60.5193 32.767 60.5193 32.6998V32.5889H60.303V32.4785C60.3751 32.4785 60.4801 32.4414 60.6178 32.3676C60.9723 33.0455 61.1494 33.6264 61.1494 34.1096C61.858 34.2305 62.2121 34.519 62.2121 34.976H62.3204C62.3204 34.7542 62.3533 34.5024 62.419 34.2204H62.6357C62.6357 34.9389 62.8485 35.2981 63.2751 35.2981L64.4363 34.8651C64.3643 34.3479 64.3284 34.0594 64.3284 33.9991C64.3284 33.784 64.4005 33.6766 64.5447 33.6766L64.4363 33.1327V32.3676L64.3284 32.1564H64.4363C64.4363 32.035 64.4005 31.6021 64.3284 30.857L64.1215 30.9578C64.2593 30.3804 64.3284 30.0212 64.3284 29.8802V29.2259L64.2299 29.0042C64.2956 29.0042 64.3284 28.9505 64.3284 28.8431C64.3284 28.1312 64.2956 27.5005 64.2299 26.9497C64.2734 26.6861 64.4112 26.7206 64.6428 27.0536C65.7584 29.7728 66.641 31.3266 67.2907 31.716C67.8547 32.0586 68.1371 32.3838 68.1371 32.6928C68.7011 33.1829 68.9835 33.4715 68.9835 33.5592C69.0556 33.5592 69.0914 33.5221 69.0914 33.4483C69.2689 33.5958 69.4459 33.67 69.623 33.67ZM97.3791 34.7852C97.3518 34.6425 97.1764 34.5788 96.8535 34.5945C96.8829 34.749 96.5903 34.9061 95.9756 35.0672C95.6863 34.7237 95.3493 34.4919 94.9637 34.3719C94.9466 34.2828 94.8327 34.2069 94.6215 34.1441L94.5345 34.1619L94.572 34.3579C94.0367 33.959 93.7606 33.7154 93.7436 33.6264C92.48 31.7928 91.7642 30.4393 91.5965 29.565C91.3533 28.6135 91.088 27.7345 90.8005 26.9275L90.8602 26.721L90.3363 25.0293L90.4323 25.01L90.2988 24.8333L89.9665 23.1027L89.696 22.166L89.3125 22.2433C89.3423 22.3978 89.2784 22.7408 89.1209 23.2729L89.3125 23.2345C89.2647 23.9913 89.2579 24.4588 89.2924 24.6373C89.3504 24.6255 89.3859 24.6521 89.3982 24.7181C89.1947 24.7586 89.1563 25.2326 89.2822 26.1396L89.4703 26.6023C89.4379 26.9667 89.362 27.2474 89.2429 27.4447C89.2553 27.5097 89.2937 27.5363 89.3577 27.5232C89.4055 28.4647 89.3914 29.0662 89.315 29.3289C89.3961 29.4363 89.443 29.5253 89.4571 29.5965C89.2698 30.005 89.1598 30.9565 89.1269 32.451C89.0642 33.131 89.0006 33.4771 88.9366 33.4898L88.6581 33.5457C88.5207 34.3082 88.3066 34.7189 88.016 34.7769C87.874 34.5399 87.7567 34.4308 87.6637 34.4496L87.4717 34.488L87.0182 34.6722C86.9632 34.3867 86.6449 34.2532 86.0631 34.2711L86.0665 33.7704C86.0046 33.4492 85.8493 33.3139 85.5993 33.3641L85.4876 32.7844C85.4274 32.4689 85.2401 32.3432 84.9266 32.4065C84.648 30.9556 84.6894 28.4525 85.0507 24.897C85.0384 24.8311 85 24.8053 84.936 24.818L84.9343 23.8181L85.145 23.8778L85.0337 23.2978C85.2483 23.2546 85.3182 22.9412 85.2423 22.3572L85.1139 21.6885C85.2589 21.6593 85.3093 21.4175 85.2645 20.9635L85.1019 20.5886C85.1233 20.387 85.1663 20.2796 85.2299 20.2661C85.2175 20.201 85.1791 20.1744 85.1152 20.1875C85.0776 19.6454 85.0879 19.1801 85.1463 18.7917C85.0584 18.6799 85.0076 18.5883 84.9936 18.5171C85.1045 18.4329 85.1915 18.3844 85.2555 18.3718C85.1608 18.2243 85.0379 17.9152 84.8878 17.4452C84.9688 17.4286 85.0567 17.2103 85.151 16.79C85.0631 16.6783 85.0132 16.5897 85.0004 16.5238L85.0964 16.5046L84.9629 16.3278C85.0277 14.6229 84.959 12.7405 84.7568 10.6816C84.9594 10.5114 85.1975 10.3988 85.4705 10.3438L85.7495 10.2875C85.8135 10.2748 85.8519 10.301 85.8643 10.3665L86.0375 10.2299C86.7345 10.4974 87.1317 10.8837 87.2285 11.3891L87.4013 11.2525L87.6803 11.1962L87.6995 11.2949L87.6479 11.4991L88.5809 11.3119L89.7293 11.6829L89.8526 11.8531L89.5736 11.909L89.5923 12.0067C89.8491 12.6532 90.2344 13.3074 90.748 13.9704C91.5573 15.1349 92.1033 16.4548 92.3861 17.9296L92.6447 19.2766C92.8366 19.2377 93.2163 20.1927 93.7833 22.1411L93.8758 22.623C93.8886 22.688 93.8626 22.7273 93.7986 22.74L93.9309 22.9084C93.9876 23.2057 93.9556 23.7124 93.8332 24.4282C94.1629 24.7944 94.3801 25.2479 94.4837 25.7891L94.5217 25.9851L94.7043 25.9485C94.8323 25.9227 94.9095 25.4749 94.9355 24.6054L95.0315 24.5862L94.898 24.409L94.8429 24.1236C95.098 23.5968 95.1608 22.053 95.0311 19.4913C95.1398 19.1793 95.2158 18.5682 95.2584 17.6582C95.5485 16.3396 95.8395 15.4815 96.1313 15.0834L96.2273 15.0642L96.2648 15.2606L96.2051 15.4666L96.4154 15.5264L96.5114 15.5072L96.4926 15.409L96.3006 15.4474L96.3608 15.2414L96.342 15.1428C96.3292 15.0777 96.2912 15.0511 96.2273 15.0642C96.2695 14.9381 96.2767 14.8041 96.2494 14.6618L96.4324 14.6247L96.4376 15.1236C96.6411 15.0825 96.8108 14.6164 96.9478 13.7243L96.9286 13.626L97.1308 13.6876L97.112 13.5894C97.048 13.6025 97.0096 13.5759 96.9968 13.5108C97.0958 13.4907 97.2118 13.403 97.3445 13.2463C97.356 13.3057 97.391 13.3297 97.449 13.3179C97.7434 12.462 98.0766 11.9967 98.4486 11.9221L98.5446 11.9029L98.6179 12.2865L97.9576 13.4196L97.7553 13.3581L97.4678 13.4161L97.4866 13.5143L97.8616 13.4388L97.8991 13.6352C97.5331 14.0852 97.3577 14.3523 97.374 14.4353C97.1641 15.3855 96.9205 17.4971 96.6436 20.7697L96.6624 20.868L96.7494 20.8505C96.9968 20.1897 97.1244 19.3303 97.1329 18.2723L97.4409 16.8118L97.5452 16.7907C97.5572 16.5234 97.6124 16.38 97.7119 16.3601L97.8075 16.3405C97.8382 16.5011 97.9333 16.649 98.092 16.7839L98.1152 16.9054C98.1585 16.8798 98.1961 16.8638 98.228 16.8572L98.2472 16.9554C98.1521 17.4683 98.08 18.113 98.0296 18.8886L98.1256 18.8694C98.2711 18.8406 98.3615 18.291 98.3978 17.2217C98.7753 17.1457 99.0074 16.4998 99.094 15.2846L99.286 15.2458C99.312 15.3828 99.2672 15.8241 99.1507 16.57C99.3077 16.5382 99.4251 16.6473 99.5031 16.8974L99.5001 17.3985C99.6004 17.5757 99.6827 17.6582 99.7467 17.6451L99.7996 19.4315C99.8376 19.6275 99.9493 19.7069 100.135 19.6698L100.152 19.7589C100.198 22.0407 100.12 24.6836 99.9186 27.6887C99.7105 28.8052 99.3048 30.4179 98.702 32.5274C98.2378 33.8189 97.9738 34.471 97.9098 34.4841L97.3791 34.7852ZM97.7165 17.2566L97.6641 16.9837C97.6973 16.9837 97.7309 16.9862 97.7651 16.9914L97.8125 17.2374L97.7165 17.2566ZM97.6933 16.103L97.7893 16.0838C97.7526 15.8939 97.7957 15.7866 97.9177 15.7617L97.861 15.4675L97.7739 15.485C97.8119 15.6809 97.7347 15.7988 97.5427 15.8372C97.6306 15.9494 97.6809 16.038 97.6933 16.103ZM71.8349 20.033H71.9432C71.9432 19.7379 71.9074 19.449 71.8349 19.167L71.9432 18.6232V18.5228H71.7368C71.7368 18.7175 71.6642 18.9322 71.5201 19.167L71.6284 19.3888C71.5563 19.3888 71.5201 19.4254 71.5201 19.4996V19.7109C71.6318 19.9256 71.7368 20.033 71.8349 20.033ZM115.033 17.4072C115.184 17.3736 115.325 17.1924 115.457 16.8633C115.391 16.7359 115.358 16.5914 115.358 16.4304C115.522 16.4304 115.84 15.8158 116.313 14.5876L116.205 14.3659V14.255C116.592 13.8054 116.802 13.1913 116.834 12.4122H116.411V12.634H116.628C115.565 14.9368 115.033 16.5277 115.033 17.4072ZM95.9216 28.4176C95.9225 28.7694 95.8585 29.1124 95.7301 29.4472C95.6196 29.4695 95.5437 29.4197 95.5019 29.2984L95.4097 28.8169L95.5057 28.7977L95.9229 26.9165C95.9105 26.8515 95.8602 26.7629 95.7723 26.6507C95.8713 26.6307 95.9835 26.5403 96.1093 26.3793L96.1285 26.477L96.0001 26.7996L96.0377 26.9956L96.2207 26.9589L96.1661 26.673L96.2621 26.6542L96.3713 27.2247C96.1934 27.9955 96.0432 28.3931 95.9216 28.4176ZM118.02 23.3894C118.38 23.3894 119.549 23.1009 121.523 22.5235V22.4131C121.523 22.2581 121.028 20.7043 120.037 17.7502V17.6499C119.703 18.0994 119.348 18.8947 118.974 20.0365C118.816 21.0364 118.534 22.0098 118.128 22.9565H118.02V23.3894ZM127.506 28.7659V28.8767C127.296 28.8767 126.978 28.044 126.552 26.3793C126.834 26.3793 126.975 26.6342 126.975 27.1448H127.191L127.398 27.034C127.398 27.1077 127.434 27.1448 127.506 27.1448L127.398 27.6882C127.47 28.3194 127.506 28.6786 127.506 28.7659ZM96.2847 24.2864C96.2382 24.0424 96.3273 23.66 96.5534 23.1393C96.5965 23.0193 96.5978 22.8521 96.5568 22.6383L96.521 22.451L96.425 22.4702C96.3435 22.4868 96.2433 22.97 96.1238 23.9202L95.8363 23.9782L95.9097 24.3615L96.0057 24.3423L96.054 24.307C96.0515 24.5159 95.9791 24.9662 95.8363 25.6578L95.8517 26.2566L95.8687 26.3461L95.9647 26.3264C96.1059 25.0201 96.1725 24.3427 96.1631 24.2951L96.1518 24.2358L96.1806 24.2148C96.1917 24.2737 96.2267 24.2977 96.2847 24.2864Z" fill="#1D1D1F"/>
<path fill-rule="evenodd" clip-rule="evenodd" d="M149.333 35.0762L147.198 34.8587L146.991 34.9675C146.121 34.7504 145.482 34.4311 145.074 34.0099C144.151 33.2523 143.69 32.6864 143.69 32.311C143.69 32.2455 143.618 31.9591 143.473 31.4519V31.3534L143.582 31.136C143.489 31.136 143.279 30.853 142.949 30.2867V29.9704C142.949 29.898 143.196 29.684 143.69 29.3283L143.582 28.7954C144.827 27.8738 145.68 27.4127 146.141 27.4127V27.5215C146.141 27.8044 145.891 28.3707 145.39 29.22V29.3283C145.542 29.3283 145.933 29.434 146.566 29.6446L148.375 29.437V29.5457C148.849 29.4734 149.31 29.3647 149.758 29.22L150.499 29.3283C151.527 29.1643 152.805 28.5253 154.333 27.4127C154.768 27.0506 155.193 26.4843 155.608 25.7142C155.964 25.3388 156.141 24.9831 156.141 24.6475C152.195 23.7982 150.067 23.2649 149.758 23.0479C149.758 23.1921 149.685 23.2649 149.54 23.2649C147.044 22.6656 145.591 22.0997 145.182 21.5664C144.879 21.5664 144.346 21.2111 143.582 20.4997C143.397 20.48 143.008 20.0189 142.415 19.117C142.244 19.117 142.067 18.8705 141.882 18.3761C141.598 18.3761 141.457 18.0208 141.457 17.3098C141.457 16.1249 141.809 15.0942 142.514 14.2188C142.942 13.4945 143.44 12.8923 144.006 12.4116C144.342 12.076 144.556 11.7233 144.649 11.3547C145.736 10.5714 146.375 10.1797 146.566 10.1797C148.167 10.3441 149.336 10.627 150.074 11.0285C151.708 11.8979 152.525 12.7142 152.525 13.4778V14.3275H152.307V14.4358L152.416 14.6533L151.883 14.7522C151.652 14.7522 151.121 14.4692 150.291 13.9025C149.066 14.4029 148.322 14.7586 148.058 14.9696C147.999 15.3052 147.538 15.7298 146.675 16.2431C146.675 16.3617 146.319 16.7174 145.608 17.3098C145.179 17.9549 144.965 18.3435 144.965 18.4754C146.388 19.1136 148.73 19.7523 151.991 20.3914C154.943 21.1024 156.751 21.8134 157.417 22.5244C159.551 23.5842 160.618 24.3975 160.618 24.9634H160.401C160.401 24.7789 160.012 24.4271 159.235 23.9065H159.017V24.0054C159.34 24.8748 159.837 25.4441 160.51 25.7142C160.51 25.8062 160.687 26.1256 161.043 26.6718C160.898 26.6919 160.826 26.7608 160.826 26.8794L160.934 27.8374C160.934 28.3776 160.51 28.8018 159.66 29.1117C159.66 29.342 159.34 29.6973 158.701 30.178C158.701 30.5337 158.131 31.0307 156.992 31.6693C156.992 31.8071 156.53 32.2322 155.608 32.9432C155.397 33.0288 155.292 33.1375 155.292 33.269H155.183L154.976 33.1607C154.976 33.6739 154.3 34.1713 152.95 34.6516C152.95 34.4345 152.877 34.3258 152.732 34.3258C152.502 34.6481 152.113 34.8622 151.566 34.9675L150.924 34.8587H150.716C150.558 34.8587 150.417 34.8951 150.291 34.9675L150.074 34.8587C149.949 34.9315 149.807 34.9675 149.649 34.9675L149.442 34.8587L149.333 35.0762ZM169.878 33.9012H169.66C168.929 33.9012 168.432 33.7959 168.168 33.5853L167.743 33.694C167.631 33.694 167.42 33.5523 167.111 33.269L166.893 33.3678C166.399 33.2557 165.938 32.8311 165.51 32.0935L165.293 32.2022H165.085C163.596 30.978 162.852 30.1617 162.852 29.7533C161.646 27.2646 161.043 24.4271 161.043 21.2406C160.991 21.2406 160.882 20.2133 160.717 18.1595H160.826C160.681 17.7969 160.608 17.5504 160.608 17.4185C160.661 16.9905 160.734 16.7764 160.826 16.7764L160.184 13.6953C160.315 13.6953 160.424 13.376 160.51 12.7373C160.793 12.7373 160.934 12.665 160.934 12.5203V12.4116H161.043L161.359 12.629C161.511 12.629 161.722 12.415 161.992 11.9869C162.071 11.9869 162.18 11.9505 162.318 11.8782V12.0957L162.852 11.9869C162.852 12.2044 162.885 12.3127 162.951 12.3127C163.049 12.2403 163.227 12.2044 163.484 12.2044C163.484 12.3683 163.698 12.4736 164.126 12.5203V12.629L164.018 12.8362C164.163 12.8362 164.235 12.9085 164.235 13.0532H164.334C164.406 13.0532 164.693 12.9809 165.194 12.8362H165.51V13.5866L165.293 13.9025L165.619 14.1199L165.293 15.7102C165.319 15.8548 165.391 15.9272 165.51 15.9272C165.437 16.7567 165.401 17.3594 165.401 17.7344V17.8431L165.51 18.8996H165.401L165.51 19.117V19.2258C165.51 20.3648 165.615 22.4191 165.826 25.388H165.718C165.79 25.5528 165.935 26.1222 166.152 27.0968L166.044 27.6302C166.182 27.8605 166.251 28.0711 166.251 28.262L166.152 28.4794C166.501 28.4794 166.676 28.8347 166.676 29.5457C166.794 29.5457 166.94 29.7563 167.111 30.178C167.46 30.178 168.31 29.3283 169.66 27.6302C170.444 26.3066 171.225 24.035 172.002 20.816V19.3242L171.894 18.5837H172.002L171.894 18.3761C171.894 18.2121 171.93 18.067 172.002 17.942C171.792 15.1635 171.686 13.498 171.686 12.9449C171.943 12.6025 172.263 12.3191 172.645 12.0957V11.7793H172.852V11.9869H173.168C173.531 11.493 173.85 11.246 174.127 11.246L174.236 11.4536L174.453 11.3547H174.661V11.6706H174.769L175.303 11.5623L175.945 11.9869V12.3127H176.37V12.0957C176.509 12.168 176.614 12.2044 176.687 12.2044C176.825 12.1316 176.93 12.0957 177.003 12.0957C177.503 12.5562 177.754 13.1226 177.754 13.7938C177.681 13.7938 177.645 13.8301 177.645 13.9025C177.784 13.929 177.853 14.0014 177.853 14.1199C177.642 14.2847 177.536 14.5313 177.536 14.8609H177.428L177.22 14.2188C177.075 14.2449 177.003 14.3173 177.003 14.4358V15.9272C177.003 16.5988 176.966 17.4151 176.894 18.3761L177.003 18.8996C176.562 21.7701 176.137 23.6865 175.728 24.6475C175.655 24.6475 175.619 24.6839 175.619 24.7562V25.7142L175.728 26.7711C175.444 26.7711 175.303 27.0575 175.303 27.6302H175.194C175.194 27.8605 175.336 28.6404 175.619 29.9704H175.51L175.619 30.178V30.7113C175.619 30.8693 175.583 31.011 175.51 31.136C175.583 31.2742 175.619 31.3795 175.619 31.4519C175.461 31.4519 175.283 31.0996 175.086 30.3954H174.987C174.987 30.4609 174.951 30.4939 174.878 30.4939C175.017 31.2447 175.194 31.9916 175.412 32.7356C175.339 32.8743 175.303 32.9796 175.303 33.0519C175.191 33.0519 174.944 32.3075 174.562 30.8201H174.453L174.345 31.0272V31.136H174.562V31.7776H174.769C174.769 31.8504 174.733 31.8863 174.661 31.8863L174.769 32.0935V32.4098L174.562 32.311C174.562 32.3769 174.526 32.4098 174.453 32.4098C174.236 31.9882 173.986 31.2083 173.702 30.0692H173.495C173.396 30.0692 173.254 30.3886 173.07 31.0272C172.931 31.0272 172.576 31.4189 172.002 32.2022L172.111 32.4098C171.92 32.6466 171.423 32.8606 170.619 33.0519C170.125 33.4603 169.878 33.7432 169.878 33.9012ZM176.153 35.6096H175.837C175.764 35.0895 175.692 34.7701 175.619 34.6516C175.692 34.5334 175.728 34.3558 175.728 34.1186H175.945V34.5428L175.837 34.7504C175.975 34.8228 176.081 34.8587 176.153 34.8587V34.9675L175.945 35.2838C176.084 35.3099 176.153 35.3827 176.153 35.5008V35.6096ZM201.095 37.8209L200.67 37.6137C200.532 37.6796 200.423 37.7126 200.345 37.7126L199.919 37.6137C199.781 37.6796 199.676 37.7126 199.603 37.7126C199.603 37.5285 199.353 37.3868 198.852 37.288C198.694 36.8727 198.411 36.5209 198.002 36.2311C197.581 35.4674 197.261 34.4042 197.044 33.0412L197.152 32.8238C197.08 32.6855 197.044 32.5802 197.044 32.5079H197.152C197.027 32.2776 196.885 31.2836 196.727 29.5252H196.836C196.705 29.0976 196.349 25.766 195.769 19.5314C195.696 19.5314 195.591 18.9621 195.453 17.823C195.453 17.7507 195.489 17.645 195.561 17.5067C195.561 16.7696 195.133 15.9529 194.277 15.0578C194.277 15.0111 194.099 14.5142 193.743 13.566C193.822 13.2501 194.073 13.0036 194.494 12.8259H194.603V13.0331C195.103 12.8948 195.387 12.8259 195.453 12.8259H195.561V13.4676H195.769L195.66 13.6748V13.7835C195.805 13.7835 195.877 13.8199 195.877 13.8922L196.727 13.3588H196.836V13.4676C196.764 13.599 196.727 13.7043 196.727 13.7835C196.8 13.7835 196.836 13.8199 196.836 13.8922C196.974 13.8199 197.08 13.7835 197.152 13.7835C197.772 13.8233 198.411 14.3892 199.069 15.4824C199.069 15.9499 199.317 16.6609 199.811 17.6154C200.311 22.1648 200.562 24.6471 200.562 25.0619H200.67C202.284 24.8444 203.49 24.7357 204.287 24.7357H204.712C205.351 24.7357 205.671 24.3474 205.671 23.5705H205.78L205.671 23.3531V23.2546C206.026 23.2546 206.382 21.1242 206.738 16.8646C206.593 16.8646 206.521 16.7957 206.521 16.6574V16.0154C206.903 16.0154 207.186 15.9101 207.37 15.6995H207.588L207.687 16.2328C207.621 16.2328 207.588 16.2658 207.588 16.3313L207.795 16.44C207.795 16.3676 207.832 16.3313 207.904 16.3313L207.795 16.1241V16.0154C208.263 16.0154 208.547 15.8018 208.645 15.3737H208.863C208.863 15.4525 208.899 15.5612 208.971 15.6995L209.179 15.5912H209.288C209.288 15.8279 209.324 16.0055 209.396 16.1241L209.604 16.0154C209.749 16.0355 209.821 16.1078 209.821 16.2328V16.3313H209.604V16.44H209.93L210.029 16.2328C209.963 16.0941 209.93 15.9862 209.93 15.9071H210.137C210.566 16.282 210.78 16.6014 210.78 16.8646H211.096L211.313 16.7559L211.205 16.5487C211.225 16.404 211.294 16.3313 211.412 16.3313C211.939 16.3313 212.226 16.44 212.272 16.6574V16.8646C212.272 17.0097 212.163 17.0821 211.946 17.0821C212.229 17.8196 212.371 18.2802 212.371 18.4647C212.022 19.8738 211.847 21.6447 211.847 23.7781L212.055 23.8869C212.055 23.8141 212.091 23.7781 212.163 23.7781C212.163 23.9228 212.199 23.9947 212.272 23.9947L212.697 23.7781V23.8869C212.697 24.0975 212.414 24.2387 211.847 24.3111V24.9531H212.588L213.972 24.6368C213.972 24.7032 214.008 24.7357 214.08 24.7357C214.08 24.5978 214.364 24.4925 214.93 24.4198V24.5285C214.93 24.6205 214.469 24.8675 213.547 25.269C213.547 25.552 212.908 25.8713 211.63 26.227V26.444L212.163 26.3358C212.236 26.3358 212.272 26.3717 212.272 26.444C212.411 26.3717 212.516 26.3358 212.588 26.3358H212.805V26.444C211.949 26.5494 211.521 26.691 211.521 26.8687C211.521 27.0797 211.484 27.185 211.412 27.185L211.521 27.402C211.383 28.0013 211.313 28.3536 211.313 28.4589L211.412 29.101C211.412 29.7529 211.201 31.3821 210.78 33.9894H210.562V33.7822H210.464V35.1644H210.137L209.713 34.8485C209.713 34.967 209.535 35.2864 209.179 35.8065C209.179 36.5637 208.968 36.9883 208.547 37.0808C208.547 37.2914 208.191 37.3967 207.479 37.3967H207.37C207.37 37.1861 207.265 37.0808 207.054 37.0808H206.945V36.2311C206.945 36.0667 206.91 35.925 206.837 35.8065C206.837 35.7341 206.873 35.6977 206.945 35.6977C206.945 35.5531 206.91 35.4803 206.837 35.4803C207.002 32.7874 207.143 31.4416 207.262 31.4416L207.163 31.2241C207.301 30.7366 207.37 30.3124 207.37 29.9502V29.101L207.479 28.5676C207.308 28.4294 207.166 28.3604 207.054 28.3604C206.007 28.5711 205.295 28.7453 204.92 28.8835V29.5252C204.735 29.5252 204.488 29.9169 204.178 30.7006L203.22 32.8238C203.082 32.8961 202.976 32.9325 202.904 32.9325V33.7822C202.904 33.953 202.726 34.2723 202.37 34.7397C202.37 35.161 202.298 35.372 202.153 35.372L202.261 35.589C201.695 36.1947 201.411 36.5504 201.411 36.6561V37.1891L201.52 37.3967C201.283 37.3967 201.141 37.5379 201.095 37.8209ZM206.204 23.7807C206.54 22.708 206.787 22.1382 206.946 22.0723C206.873 21.7894 206.768 21.5424 206.629 21.3318L206.837 21.0159H206.738C206.62 21.0159 206.474 21.2629 206.303 21.7564L206.412 22.2898C206.379 22.5727 206.273 22.7144 206.096 22.7144V22.8227L206.204 23.0307H205.987V23.5637C206.013 23.7088 206.086 23.7807 206.204 23.7807ZM208.863 32.5014C209.034 32.5014 209.139 32.1453 209.179 31.4343C209.113 31.2965 209.08 31.1912 209.08 31.1184H209.288V30.6942C209.288 30.5491 209.218 30.4768 209.08 30.4768L209.179 29.9434V28.8865C209.179 28.8142 209.215 28.7778 209.288 28.7778L209.179 28.5608C209.179 28.4884 209.215 28.3827 209.288 28.2449L209.08 27.2869C209.146 27.2869 209.179 27.2505 209.179 27.1782H208.971V27.929C208.971 28.0869 208.935 28.2282 208.863 28.3532C208.863 28.4259 208.899 28.4619 208.971 28.4619L208.863 28.9854V29.2024L208.971 29.9434H208.863L208.971 30.1608V30.368C208.971 30.5127 208.899 30.5855 208.754 30.5855C208.899 30.8158 208.971 31.0298 208.971 31.2271V31.7506L208.863 32.5014ZM208.121 33.4594C208.26 32.9261 208.329 32.6068 208.329 32.5014C208.329 32.4291 208.293 32.3927 208.22 32.3927L208.329 31.8594V30.6942L208.22 29.41H208.329L208.22 29.2024V28.4619C208.22 28.3896 208.257 28.3532 208.329 28.3532C208.257 28.2611 208.22 28.0107 208.22 27.6028C208.082 27.6293 208.013 27.7017 208.013 27.8202V28.5608C208.013 28.9691 207.976 29.2196 207.904 29.3112C207.976 29.6934 208.013 30.0123 208.013 30.2696V33.4594H208.121ZM203.329 30.7927C203.329 30.5624 203.576 30.0684 204.07 29.3112L204.603 28.2449V28.0274H204.495C204.086 28.482 203.767 29.0513 203.536 29.7362C203.49 29.7362 203.348 29.9139 203.112 30.2696V30.7927H203.329ZM200.878 32.5014C201.3 32.04 202.08 30.8684 203.22 28.9854C203.22 28.9195 203.256 28.8865 203.329 28.8865V29.2024H203.536C203.536 28.9062 203.609 28.5509 203.754 28.1361H203.645V28.2449C203.572 28.2449 203.536 28.2085 203.536 28.1361C202.37 28.5638 201.698 28.7778 201.52 28.7778C201.039 28.5672 200.756 28.4619 200.67 28.4619V28.7778C200.67 28.9358 200.703 29.0774 200.769 29.2024C200.769 29.2748 200.736 29.3112 200.67 29.3112C200.736 29.6339 200.805 30.6972 200.878 32.5014ZM217.681 37.0945H217.048C217.048 36.9562 216.834 36.8145 216.406 36.6698C215.339 35.5372 214.805 32.5943 214.805 27.8408C214.739 27.8408 214.706 27.6995 214.706 27.4162C214.706 27.3438 214.739 27.3074 214.805 27.3074L214.706 26.7745V25.8161C214.706 25.7506 214.739 25.7176 214.805 25.7176C214.739 25.5794 214.706 25.4707 214.706 25.3915L214.805 22.8437H214.914C214.914 22.7713 214.878 22.735 214.805 22.735C214.897 21.774 214.97 21.2077 215.022 21.0364C215.022 20.9637 214.987 20.9277 214.914 20.9277C214.914 20.8554 214.95 20.7496 215.022 20.6118C215.095 18.8213 215.131 17.4023 215.131 16.3552C215.131 15.1965 214.99 13.7051 214.706 11.8816C215.016 11.3153 215.336 11.0319 215.665 11.0319C216.074 11.0319 216.32 11.21 216.406 11.5653C216.926 11.6843 217.388 12.0396 217.789 12.6324C217.789 12.8229 217.862 13.0335 218.007 13.2642L218.214 13.1654H218.323C218.462 14.1332 218.531 14.6636 218.531 14.7556H218.748V14.548C219.051 14.548 219.229 15.0415 219.282 16.0295C219.381 16.0295 219.523 16.5265 219.707 17.5204C219.779 17.5204 219.815 17.5568 219.815 17.6291C219.815 17.7015 219.779 17.7378 219.707 17.7378L220.023 19.9697C219.95 20.352 219.914 20.6709 219.914 20.9277V22.0929C219.914 22.2577 219.881 22.4028 219.815 22.5278C219.881 22.6592 219.914 22.7645 219.914 22.8437C219.657 25.4638 219.447 26.7745 219.282 26.7745L219.391 27.5249V29.4404C219.391 29.5984 219.354 29.7401 219.282 29.8651C219.354 29.9905 219.391 30.1317 219.391 30.2901V30.3984C219.391 30.5371 219.318 30.606 219.173 30.606C219.173 30.5337 219.137 30.4973 219.064 30.4973V30.606L219.282 30.9219V31.1394L218.857 34.5467L218.323 35.3955C218.086 35.3955 217.872 35.5008 217.681 35.7119C217.681 35.7842 217.717 35.8202 217.789 35.8202L217.681 36.8873V37.0945ZM183.339 15.2633C184.325 14.8968 185.25 14.5904 186.116 14.3442H186.211V14.524C185.901 14.5416 185.746 14.6045 185.746 14.7136C185.19 14.7479 184.912 14.8712 184.912 15.0831H184.637C184.43 15.0831 184.216 15.1747 183.992 15.3579H183.339V15.2633ZM193.92 29.315H194.014C194.014 29.1832 193.922 28.997 193.739 28.7564V28.4816L193.825 28.2924L193.275 27.3648C192.254 26.3332 191.079 25.4082 189.749 24.5893C188.46 23.8274 187.812 23.3946 187.806 23.2919C187.296 23.074 185.938 22.2436 183.731 20.8001C182.522 20.1183 181.69 19.4081 181.238 18.6689C181.266 18.4227 181.358 18.2995 181.513 18.2995C181.513 17.8872 183.402 17.2195 185.007 16.5607C185.935 16.3086 186.399 16.0937 186.399 15.916C187.999 15.3835 188.893 15.0428 189.082 14.8939C190.011 14.6875 190.475 14.533 190.475 14.4298C190.612 14.4298 190.736 14.6477 190.845 15.0831L190.75 15.2633C190.75 15.3895 190.842 15.452 191.025 15.452V15.5466C190.842 15.5466 190.75 15.6387 190.75 15.8219C190.813 16.1309 190.999 16.532 191.309 17.0247H191.584L191.489 16.8359H191.765C192.034 16.0338 192.252 15.6327 192.418 15.6327V15.452C192.418 15.1485 192.51 14.8395 192.693 14.524C192.63 14.4157 192.599 14.292 192.599 14.155C192.57 13.9431 192.077 13.5421 191.12 12.9522L189.546 12.4882H189.452C189.028 12.4882 188.566 12.5824 188.068 12.7716C186.33 13.138 185.219 13.5074 184.732 13.8802L184.543 13.7856H184.362C184.047 14.0318 183.645 14.1863 183.158 14.2496L179.917 15.7273C178.581 16.4147 177.839 17.1253 177.69 17.8581C177.69 17.9497 177.844 18.3508 178.154 19.061L178.059 19.2502C178.059 19.302 178.183 19.5768 178.43 20.075C178.43 20.2411 178.584 20.4273 178.894 20.6336C178.894 20.8113 179.171 21.1807 179.727 21.7419C180.421 22.1601 180.946 22.5612 181.301 22.9447C181.92 23.0534 182.23 23.2084 182.23 23.4087C183.445 24.0735 184.124 24.5058 184.267 24.7066C185.832 25.5712 187.437 26.5879 189.082 27.7569C190.131 28.295 190.656 28.6674 190.656 28.8737C190.019 29.3831 188.136 29.7846 185.007 30.0765C185.007 30.0136 184.975 29.9819 184.912 29.9819C184.803 30.0448 184.68 30.0765 184.543 30.0765H180.931C179.945 30.0765 179.452 30.4459 179.452 31.1848V31.46C179.688 31.46 179.842 31.6779 179.917 32.1128L180.467 32.4826C180.731 32.6654 180.917 32.7574 181.026 32.7574C181.376 33.0036 181.622 33.1264 181.765 33.1264C181.765 33.4419 182.353 33.6598 183.528 33.78V33.8657L183.433 34.0544C183.937 34.0544 184.247 34.1148 184.362 34.2351H184.637L185.196 34.149L185.376 34.2351C186.265 34.1606 187.035 34.0694 187.689 33.9603C187.689 34.0232 187.721 34.0544 187.784 34.0544C189.005 33.9059 190.24 33.5964 191.489 33.1264C191.885 33.0352 192.226 32.6341 192.513 31.924H193.157L193.346 31.2794V30.996C193.346 30.8526 194.109 29.7217 193.92 29.315Z" fill="#1D1D1F"/>
</svg>
