<svg width="25" height="24" viewBox="0 0 25 24" fill="none" xmlns="http://www.w3.org/2000/svg">
<path fill-rule="evenodd" clip-rule="evenodd" d="M7.06596 3.05025C8.37871 1.7375 10.1592 1 12.0157 1C13.8722 1 15.6527 1.7375 16.9655 3.05025C18.2782 4.36301 19.0157 6.14349 19.0157 8C19.0157 11.3527 19.7328 13.4346 20.3936 14.6461C20.7254 15.2544 21.0485 15.6535 21.2729 15.8904C21.3854 16.0091 21.4738 16.0878 21.527 16.1322C21.5536 16.1544 21.5715 16.168 21.5792 16.1737C21.5804 16.1746 21.5813 16.1753 21.582 16.1758C21.9405 16.4221 22.0991 16.8725 21.9728 17.2898C21.8451 17.7115 21.4564 18 21.0157 18H3.0157C2.57504 18 2.18631 17.7115 2.05861 17.2898C1.93227 16.8725 2.09091 16.4221 2.44939 16.1758C2.45009 16.1753 2.45105 16.1746 2.45225 16.1737C2.45995 16.168 2.4778 16.1544 2.50442 16.1322C2.55764 16.0878 2.64602 16.0091 2.7585 15.8904C2.98293 15.6535 3.30601 15.2544 3.63781 14.6461C4.29864 13.4346 5.0157 11.3527 5.0157 8C5.0157 6.14348 5.7532 4.36301 7.06596 3.05025ZM2.4595 16.169C2.45958 16.1689 2.45966 16.1688 2.45974 16.1688C2.45973 16.1688 2.45973 16.1688 2.45972 16.1688L2.4595 16.169ZM5.16503 16H18.8664C18.7903 15.8753 18.7139 15.7434 18.6378 15.6039C17.7986 14.0654 17.0157 11.6473 17.0157 8C17.0157 6.67392 16.4889 5.40215 15.5512 4.46447C14.6136 3.52678 13.3418 3 12.0157 3C10.6896 3 9.41785 3.52678 8.48017 4.46447C7.54249 5.40215 7.0157 6.67392 7.0157 8C7.0157 11.6473 6.23277 14.0654 5.3936 15.6039C5.3175 15.7434 5.24111 15.8753 5.16503 16Z" fill="#686870"/>
<path fill-rule="evenodd" clip-rule="evenodd" d="M9.78746 20.1352C10.2652 19.858 10.8771 20.0207 11.1542 20.4984C11.2421 20.6499 11.3683 20.7757 11.5201 20.8632C11.6719 20.9506 11.844 20.9966 12.0192 20.9966C12.1944 20.9966 12.3665 20.9506 12.5183 20.8632C12.6701 20.7757 12.7963 20.6499 12.8842 20.4984C13.1613 20.0207 13.7733 19.858 14.251 20.1352C14.7287 20.4123 14.8913 21.0242 14.6142 21.5019C14.3505 21.9566 13.972 22.3339 13.5166 22.5962C13.0611 22.8586 12.5448 22.9966 12.0192 22.9966C11.4937 22.9966 10.9773 22.8586 10.5219 22.5962C10.0665 22.3339 9.68794 21.9566 9.42423 21.5019C9.14711 21.0242 9.30973 20.4123 9.78746 20.1352Z" fill="#686870"/>
</svg>
