<svg width="25" height="24" viewBox="0 0 25 24" fill="none" xmlns="http://www.w3.org/2000/svg">
<path fill-rule="evenodd" clip-rule="evenodd" d="M21.4166 12.2211C21.8322 12.2211 22.1692 11.8841 22.1692 11.4684C22.1692 6.0649 17.9505 1.84619 12.5469 1.84619C12.1313 1.84619 11.7943 2.18315 11.7943 2.59881C11.7943 3.01446 12.1313 3.35142 12.5469 3.35142C17.1192 3.35142 20.664 6.89622 20.664 11.4684C20.664 11.8841 21.0009 12.2211 21.4166 12.2211ZM9.8858 9.51715C10.7675 8.63541 10.7675 7.20582 9.88581 6.32408L7.75709 4.19536C6.87535 3.31362 5.44576 3.31362 4.56402 4.19536L2.52264 6.23674C2.07709 6.6823 1.83799 7.29378 1.86313 7.92339C1.99044 11.1096 3.61465 14.2444 6.69273 17.3224C9.77081 20.4005 12.9055 22.0247 16.0917 22.152C16.7213 22.1772 17.3328 21.9381 17.7784 21.4925L19.8198 19.4512C20.7016 18.5694 20.7016 17.1398 19.8198 16.2581L17.6911 14.1294C16.8093 13.2476 15.3798 13.2476 14.498 14.1294L13.3505 15.2769C13.261 15.3664 13.1189 15.3752 13.0191 15.2975L12.1218 14.5996C11.1109 13.8134 10.2018 12.9043 9.41553 11.8934L8.71764 10.9961C8.63996 10.8962 8.64881 10.7541 8.73827 10.6647L9.8858 9.51715ZM3.58707 7.30098L5.62845 5.2596C5.92236 4.96568 6.39889 4.96568 6.6928 5.2596L8.82152 7.38832C9.11543 7.68223 9.11543 8.15876 8.82152 8.45268L7.67399 9.60021C7.04774 10.2265 6.98582 11.221 7.52955 11.9201L8.22744 12.8174C9.09042 13.9269 10.0882 14.9247 11.1977 15.7877L12.095 16.4856C12.7941 17.0293 13.7887 16.9674 14.4149 16.3411L15.5624 15.1936C15.8564 14.8997 16.3329 14.8997 16.6268 15.1936L18.7555 17.3223C19.0494 17.6162 19.0494 18.0928 18.7555 18.3867L16.7141 20.4281C16.5656 20.5766 16.3618 20.6563 16.1519 20.6479C13.384 20.5373 10.5875 19.0883 7.75716 16.258C4.9268 13.4276 3.47782 10.6311 3.36723 7.8632C3.35885 7.65333 3.43855 7.4495 3.58707 7.30098ZM18.9759 11.8233C18.9759 12.2389 18.6389 12.5759 18.2232 12.5759C17.8076 12.5759 17.4706 12.2389 17.4706 11.8233C17.4706 9.19076 14.8244 6.54451 12.1919 6.54451C11.7762 6.54451 11.4393 6.20755 11.4393 5.7919C11.4393 5.37624 11.7762 5.03928 12.1919 5.03928C15.6557 5.03928 18.9759 8.35944 18.9759 11.8233Z" fill="#FF6633"/>
</svg>
