<svg width="25" height="24" viewBox="0 0 25 24" fill="none" xmlns="http://www.w3.org/2000/svg">
<path fill-rule="evenodd" clip-rule="evenodd" d="M4.48009 15.4645C5.41777 14.5268 6.68954 14 8.01562 14H16.0156C17.3417 14 18.6135 14.5268 19.5512 15.4645C20.4888 16.4021 21.0156 17.6739 21.0156 19V21C21.0156 21.5523 20.5679 22 20.0156 22C19.4633 22 19.0156 21.5523 19.0156 21V19C19.0156 18.2044 18.6996 17.4413 18.1369 16.8787C17.5743 16.3161 16.8113 16 16.0156 16H8.01562C7.21998 16 6.45691 16.3161 5.8943 16.8787C5.3317 17.4413 5.01562 18.2044 5.01562 19V21C5.01562 21.5523 4.56791 22 4.01562 22C3.46334 22 3.01562 21.5523 3.01562 21V19C3.01562 17.6739 3.54241 16.4021 4.48009 15.4645Z" fill="#686870"/>
<path fill-rule="evenodd" clip-rule="evenodd" d="M12.0156 4C10.3588 4 9.01562 5.34315 9.01562 7C9.01562 8.65686 10.3588 10 12.0156 10C13.6725 10 15.0156 8.65686 15.0156 7C15.0156 5.34315 13.6725 4 12.0156 4ZM7.01562 7C7.01562 4.23858 9.2542 2 12.0156 2C14.777 2 17.0156 4.23858 17.0156 7C17.0156 9.76142 14.777 12 12.0156 12C9.2542 12 7.01562 9.76142 7.01562 7Z" fill="#686870"/>
</svg>
