<svg width="21" height="16" viewBox="0 0 21 16" fill="none" xmlns="http://www.w3.org/2000/svg">
<path fill-rule="evenodd" clip-rule="evenodd" d="M19.6601 0.168842C19.9411 0.394386 20.0583 0.742586 20.0018 1.18478C19.9134 1.87735 16.8858 15.3025 16.7697 15.5166C16.631 15.7724 16.2683 16.0039 16.0124 15.9999C15.6224 15.994 15.2396 15.764 13.0131 14.1975L10.7014 12.5712L10.1472 13.0507C9.8424 13.3145 9.35094 13.7669 9.05507 14.056C8.34908 14.746 8.01564 14.9771 7.72623 14.9771C7.49714 14.9771 7.49506 14.9742 7.5241 14.6864C7.54024 14.5265 7.61692 13.5199 7.69445 12.4495C7.77199 11.3792 7.8597 10.4825 7.8894 10.4568C7.91902 10.4311 9.84764 8.77057 12.1751 6.7666C14.5026 4.76263 16.4069 3.07355 16.4069 3.01301C16.4069 2.93529 16.3486 2.90677 16.2087 2.91594C16.0868 2.92394 13.9724 4.15188 10.7217 6.10228C7.81294 7.84767 5.39796 9.29499 5.35521 9.31866C5.31246 9.34226 4.57011 9.15085 3.70554 8.89323C2.84097 8.6356 1.7549 8.31223 1.29206 8.17445C0.797018 8.02724 0.361432 7.85259 0.23412 7.75046C-0.165388 7.42982 -0.00866913 7.02539 0.635708 6.71393C0.788913 6.63984 2.38286 6.03969 4.17777 5.3803C9.37977 3.46916 17.499 0.480375 18.1641 0.231914C18.9356 -0.0563605 19.3573 -0.0741467 19.6601 0.168842Z" fill="#039BE5"/>
</svg>
